<svg xmlns="http://www.w3.org/2000/svg" version="1.1" xmlns:xlink="http://www.w3.org/1999/xlink" xmlns:svgjs="http://svgjs.dev/svgjs" viewBox="0 0 800 800"><defs><linearGradient x1="50%" y1="0%" x2="50%" y2="100%" id="ffflurry-grad" gradientTransform="rotate(270)"><stop stop-color="hsl(238, 0%, 0%)" stop-opacity="1" offset="0%"></stop><stop stop-color="hsl(1, 0%, 31%)" stop-opacity="1" offset="45%"></stop><stop stop-color="hsl(167, 1%, 100%)" stop-opacity="1" offset="100%"></stop></linearGradient></defs><rect width="100%" height="100%" fill="hsl(238, 0%, 0%)"></rect><g fill="url(#ffflurry-grad)"><rect width="255" height="3" x="-94.5" y="33.5" rx="1.5" transform="rotate(45, 33, 35)" opacity="0.50"></rect><rect width="319" height="3" x="116.5" y="117.5" rx="1.5" transform="rotate(45, 276, 119)" opacity="0.72"></rect><rect width="629" height="3" x="24.5" y="383.5" rx="1.5" transform="rotate(45, 339, 385)" opacity="0.88"></rect><rect width="81" height="3" x="670.5" y="576.5" rx="1.5" transform="rotate(45, 711, 578)" opacity="0.22"></rect><rect width="531" height="3" x="-161.5" y="40.5" rx="1.5" transform="rotate(45, 104, 42)" opacity="0.39"></rect><rect width="126" height="3" x="686" y="718.5" rx="1.5" transform="rotate(45, 749, 720)" opacity="0.81"></rect><rect width="314" height="3" x="415" y="577.5" rx="1.5" transform="rotate(45, 572, 579)" opacity="0.38"></rect><rect width="448" height="3" x="389" y="365.5" rx="1.5" transform="rotate(45, 613, 367)" opacity="0.90"></rect><rect width="321" height="3" x="52.5" y="36.5" rx="1.5" transform="rotate(45, 213, 38)" opacity="0.75"></rect><rect width="500" height="3" x="83" y="562.5" rx="1.5" transform="rotate(45, 333, 564)" opacity="0.63"></rect><rect width="273" height="3" x="32.5" y="725.5" rx="1.5" transform="rotate(45, 169, 727)" opacity="0.43"></rect><rect width="107" height="3" x="-31.5" y="515.5" rx="1.5" transform="rotate(45, 22, 517)" opacity="0.59"></rect><rect width="445" height="3" x="-44.5" y="366.5" rx="1.5" transform="rotate(45, 178, 368)" opacity="0.62"></rect><rect width="524" height="3" x="279" y="313.5" rx="1.5" transform="rotate(45, 541, 315)" opacity="0.51"></rect><rect width="40" height="3" x="684" y="445.5" rx="1.5" transform="rotate(45, 704, 447)" opacity="0.42"></rect><rect width="170" height="3" x="588" y="603.5" rx="1.5" transform="rotate(45, 673, 605)" opacity="0.41"></rect><rect width="33" height="3" x="477.5" y="20.5" rx="1.5" transform="rotate(45, 494, 22)" opacity="0.67"></rect><rect width="345" height="3" x="493.5" y="30.5" rx="1.5" transform="rotate(45, 666, 32)" opacity="0.30"></rect><rect width="455" height="3" x="-177.5" y="602.5" rx="1.5" transform="rotate(45, 50, 604)" opacity="0.62"></rect><rect width="272" height="3" x="460" y="118.5" rx="1.5" transform="rotate(45, 596, 120)" opacity="0.98"></rect><rect width="354" height="3" x="-62" y="128.5" rx="1.5" transform="rotate(45, 115, 130)" opacity="0.44"></rect><rect width="60" height="3" x="50" y="664.5" rx="1.5" transform="rotate(45, 80, 666)" opacity="0.75"></rect><rect width="142" height="3" x="2" y="534.5" rx="1.5" transform="rotate(45, 73, 536)" opacity="0.24"></rect><rect width="564" height="3" x="-26" y="626.5" rx="1.5" transform="rotate(45, 256, 628)" opacity="0.64"></rect><rect width="438" height="3" x="-188" y="431.5" rx="1.5" transform="rotate(45, 31, 433)" opacity="0.70"></rect><rect width="261" height="3" x="436.5" y="39.5" rx="1.5" transform="rotate(45, 567, 41)" opacity="0.15"></rect><rect width="731" height="3" x="-143.5" y="255.5" rx="1.5" transform="rotate(45, 222, 257)" opacity="0.82"></rect><rect width="272" height="3" x="247" y="221.5" rx="1.5" transform="rotate(45, 383, 223)" opacity="0.81"></rect><rect width="362" height="3" x="567" y="157.5" rx="1.5" transform="rotate(45, 748, 159)" opacity="0.76"></rect><rect width="145" height="3" x="362.5" y="40.5" rx="1.5" transform="rotate(45, 435, 42)" opacity="0.16"></rect><rect width="167" height="3" x="93.5" y="89.5" rx="1.5" transform="rotate(45, 177, 91)" opacity="0.85"></rect><rect width="311" height="3" x="175.5" y="674.5" rx="1.5" transform="rotate(45, 331, 676)" opacity="0.96"></rect><rect width="239" height="3" x="313.5" y="545.5" rx="1.5" transform="rotate(45, 433, 547)" opacity="0.58"></rect><rect width="210" height="3" x="613" y="256.5" rx="1.5" transform="rotate(45, 718, 258)" opacity="0.29"></rect><rect width="96" height="3" x="-17" y="286.5" rx="1.5" transform="rotate(45, 31, 288)" opacity="0.65"></rect><rect width="138" height="3" x="301" y="90.5" rx="1.5" transform="rotate(45, 370, 92)" opacity="0.29"></rect><rect width="294" height="3" x="338" y="648.5" rx="1.5" transform="rotate(45, 485, 650)" opacity="0.41"></rect><rect width="145" height="3" x="259.5" y="763.5" rx="1.5" transform="rotate(45, 332, 765)" opacity="0.98"></rect><rect width="337" height="3" x="351.5" y="499.5" rx="1.5" transform="rotate(45, 520, 501)" opacity="0.88"></rect><rect width="76" height="3" x="153" y="575.5" rx="1.5" transform="rotate(45, 191, 577)" opacity="0.57"></rect><rect width="415" height="3" x="-78.5" y="516.5" rx="1.5" transform="rotate(45, 129, 518)" opacity="0.48"></rect><rect width="508" height="3" x="232" y="88.5" rx="1.5" transform="rotate(45, 486, 90)" opacity="0.48"></rect><rect width="139" height="3" x="670.5" y="411.5" rx="1.5" transform="rotate(45, 740, 413)" opacity="0.77"></rect><rect width="253" height="3" x="64.5" y="466.5" rx="1.5" transform="rotate(45, 191, 468)" opacity="0.74"></rect><rect width="54" height="3" x="290" y="480.5" rx="1.5" transform="rotate(45, 317, 482)" opacity="0.38"></rect><rect width="551" height="3" x="242.5" y="185.5" rx="1.5" transform="rotate(45, 518, 187)" opacity="0.15"></rect><rect width="509" height="3" x="-200.5" y="352.5" rx="1.5" transform="rotate(45, 54, 354)" opacity="0.76"></rect><rect width="297" height="3" x="104.5" y="432.5" rx="1.5" transform="rotate(45, 253, 434)" opacity="0.73"></rect><rect width="412" height="3" x="419" y="220.5" rx="1.5" transform="rotate(45, 625, 222)" opacity="0.11"></rect><rect width="132" height="3" x="56" y="299.5" rx="1.5" transform="rotate(45, 122, 301)" opacity="0.54"></rect><rect width="227" height="3" x="286.5" y="654.5" rx="1.5" transform="rotate(45, 400, 656)" opacity="0.71"></rect><rect width="130" height="3" x="562" y="504.5" rx="1.5" transform="rotate(45, 627, 506)" opacity="0.26"></rect><rect width="233" height="3" x="219.5" y="297.5" rx="1.5" transform="rotate(45, 336, 299)" opacity="0.88"></rect><rect width="202" height="3" x="604" y="508.5" rx="1.5" transform="rotate(45, 705, 510)" opacity="0.95"></rect><rect width="365" height="3" x="-145.5" y="116.5" rx="1.5" transform="rotate(45, 37, 118)" opacity="0.94"></rect><rect width="306" height="3" x="223" y="21.5" rx="1.5" transform="rotate(45, 376, 23)" opacity="0.71"></rect><rect width="406" height="3" x="51" y="737.5" rx="1.5" transform="rotate(45, 254, 739)" opacity="0.57"></rect><rect width="65" height="3" x="264.5" y="190.5" rx="1.5" transform="rotate(45, 297, 192)" opacity="0.30"></rect><rect width="561" height="3" x="147.5" y="155.5" rx="1.5" transform="rotate(45, 428, 157)" opacity="0.61"></rect><rect width="209" height="3" x="510.5" y="650.5" rx="1.5" transform="rotate(45, 615, 652)" opacity="0.18"></rect><rect width="112" height="3" x="3" y="752.5" rx="1.5" transform="rotate(45, 59, 754)" opacity="0.77"></rect><rect width="378" height="3" x="585" y="496.5" rx="1.5" transform="rotate(45, 774, 498)" opacity="0.71"></rect><rect width="240" height="3" x="647" y="590.5" rx="1.5" transform="rotate(45, 767, 592)" opacity="0.74"></rect><rect width="370" height="3" x="426" y="438.5" rx="1.5" transform="rotate(45, 611, 440)" opacity="0.27"></rect><rect width="327" height="3" x="285.5" y="292.5" rx="1.5" transform="rotate(45, 449, 294)" opacity="0.52"></rect><rect width="433" height="3" x="426.5" y="745.5" rx="1.5" transform="rotate(45, 643, 747)" opacity="0.48"></rect><rect width="377" height="3" x="-32.5" y="195.5" rx="1.5" transform="rotate(45, 156, 197)" opacity="0.75"></rect><rect width="345" height="3" x="252.5" y="753.5" rx="1.5" transform="rotate(45, 425, 755)" opacity="0.67"></rect><rect width="413" height="3" x="325.5" y="738.5" rx="1.5" transform="rotate(45, 532, 740)" opacity="0.34"></rect><rect width="249" height="3" x="314.5" y="418.5" rx="1.5" transform="rotate(45, 439, 420)" opacity="0.96"></rect><rect width="467" height="3" x="495.5" y="69.5" rx="1.5" transform="rotate(45, 729, 71)" opacity="0.07"></rect><rect width="314" height="3" x="-54" y="425.5" rx="1.5" transform="rotate(45, 103, 427)" opacity="0.94"></rect><rect width="470" height="3" x="511" y="317.5" rx="1.5" transform="rotate(45, 746, 319)" opacity="0.97"></rect><rect width="190" height="3" x="670" y="373.5" rx="1.5" transform="rotate(45, 765, 375)" opacity="0.30"></rect><rect width="447" height="3" x="33.5" y="343.5" rx="1.5" transform="rotate(45, 257, 345)" opacity="0.18"></rect><rect width="370" height="3" x="-136" y="205.5" rx="1.5" transform="rotate(45, 49, 207)" opacity="0.41"></rect><rect width="373" height="3" x="108.5" y="33.5" rx="1.5" transform="rotate(45, 295, 35)" opacity="0.33"></rect></g></svg>