<?xml version="1.0" standalone="no"?>
<!DOCTYPE svg PUBLIC "-//W3C//DTD SVG 1.1//EN" "http://www.w3.org/Graphics/SVG/1.1/DTD/svg11.dtd" >
<svg xmlns="http://www.w3.org/2000/svg" xmlns:xlink="http://www.w3.org/1999/xlink" version="1.1">
<metadata></metadata>
<defs>
<font id="mazeletterpath" horiz-adv-x="2048" >
<font-face units-per-em="2048" ascent="1536" descent="-512" />
<missing-glyph horiz-adv-x="512" />
<glyph horiz-adv-x="0" />
<glyph horiz-adv-x="0" />
<glyph unicode=" "  horiz-adv-x="512" />
<glyph unicode="&#x09;" horiz-adv-x="512" />
<glyph unicode="&#xa0;" horiz-adv-x="512" />
<glyph unicode="!" horiz-adv-x="1024" d="M-72 0l1024 1024l-512 512l72 72l584 -584l-1096 -1096zM-72 512l512 512l-512 512l72 72l584 -584l-584 -584zM-72 -512l1096 1096l72 -72l-1096 -1096zM440 -512l584 584l72 -72l-584 -584z" />
<glyph unicode="&#x22;" d="M-72 0l512 512l-512 512l72 72l584 -584l-584 -584zM-72 1536l72 72l1096 -1096l-768 -768l256 -256l-72 -72l-328 328l768 768zM440 1536l72 72l768 -768l184 184l-512 512l72 72l1096 -1096l-72 -72l-512 512l-256 -256zM696 -256l840 840l328 -328l-840 -840l-72 72 l768 768l-184 184l-768 -768zM1464 1536l72 72l584 -584l-72 -72zM1720 -256l328 328l72 -72l-256 -256l256 -256l-72 -72z" />
<glyph unicode="#" d="M-72 0l256 256l-256 256l72 72l328 -328l-328 -328zM-72 -512l768 768l-768 768l72 72l768 -768l440 440l-768 768l72 72l768 -768l768 768l72 -72l-768 -768l440 -440l256 256l72 -72l-256 -256l256 -256l-72 -72l-256 256l-440 -440l256 -256l-72 -72l-256 256 l-256 -256l-72 72l256 256l-440 440l-768 -768zM-72 1536l72 72l840 -840l-72 -72zM440 -512l328 328l72 -72l-328 -328zM840 256l440 -440l440 440l-440 440zM952 1536l72 72l256 -256l256 256l72 -72l-328 -328zM1720 -256l72 72l328 -328l-72 -72zM1720 768l328 328 l72 -72l-328 -328z" />
<glyph unicode="$" d="M-72 -512l512 512l-512 512l72 72l256 -256l184 184l-512 512l584 584l256 -256l256 256l72 -72l-328 -328l-256 256l-440 -440l512 -512l-256 -256l512 -512l-72 -72l-256 256l-512 -512zM440 1024l72 72l256 -256l256 256l328 -328l-72 -72l-256 256l-184 -184 l952 -952l256 256l72 -72l-584 -584l-256 256l-256 -256l-72 72l328 328l256 -256l184 184l-440 440l-256 -256l-328 328l72 72l256 -256l184 184zM1208 1280l72 72l256 -256l512 512l72 -72l-512 -512l256 -256l-256 -256l256 -256l-72 -72l-328 328l256 256z" />
<glyph unicode="%" d="M-72 0l256 256l-256 256l72 72l328 -328l-328 -328zM-72 -512l584 584l512 -512l256 256l256 -256l512 512l72 -72l-584 -584l-256 256l-256 -256l-512 512l-512 -512zM-72 1024l72 72l512 -512l256 256l328 -328l-256 -256l256 -256l-72 -72l-328 328l256 256l-184 184 l-256 -256zM184 1280l328 328l328 -328l-328 -328zM328 1280l184 -184l184 184l-184 184zM952 1024l256 256l-256 256l72 72l328 -328l-328 -328zM1208 256l328 328l328 -328l-328 -328zM1208 766l328 348l584 -604l-74 -70l-510 527l-254 -271zM1352 256l184 -184l184 184 l-184 184zM1720 1280l328 328l72 -72l-256 -256l256 -256l-72 -72z" />
<glyph unicode="&#x26;" d="M-72 0l72 72l512 -512l184 184l-768 768l328 328l1280 -1280l512 512l72 -72l-584 -584l-1280 1280l-184 -184l768 -768l-328 -328zM-72 1536l72 72l1536 -1536l184 184l-1024 1024l328 328l768 -768l184 184l-512 512l72 72l584 -584l-328 -328l-768 768l-184 -184 l1024 -1024l-328 -328z" />
<glyph unicode="'" d="M-72 0l512 512l-512 512l72 72l584 -584l-584 -584zM-72 -512l1024 1024l-768 768l328 328l72 -72l-256 -256l768 -768l-1096 -1096zM440 -512l840 840l256 -256l512 512l72 -72l-1096 -1096l-72 72l512 512l-184 184l-768 -768zM696 1280l72 72l768 -768l184 184 l-768 768l72 72l840 -840l-328 -328zM1464 -512l584 584l72 -72l-584 -584zM1720 1280l328 328l72 -72l-256 -256l256 -256l-72 -72z" />
<glyph unicode="(" horiz-adv-x="512" d="M-72 0l72 72l328 -328l-328 -328l-72 72l256 256zM-72 512l584 584l72 -72l-512 -512l512 -512l-72 -72zM-72 1024l256 256l-256 256l72 72l328 -328l-328 -328z" />
<glyph unicode=")" horiz-adv-x="512" d="M-72 0l512 512l-512 512l72 72l584 -584l-584 -584zM184 -256l328 328l72 -72l-256 -256l256 -256l-72 -72zM184 1280l328 328l72 -72l-256 -256l256 -256l-72 -72z" />
<glyph unicode="*" d="M-72 0l256 256l-256 256l72 72l328 -328l-328 -328zM-72 -512l1352 1352l72 -72l-1352 -1352zM-72 1024l328 328l72 -72l-328 -328zM184 768l328 328l328 -328l-72 -72l-256 256l-184 -184l256 -256l-72 -72zM440 1536l72 72l328 -328l-72 -72zM696 -256l328 328l72 -72 l-256 -256l256 -256l-72 -72zM952 1024l328 328l72 -72l-328 -328zM1208 256l72 72l840 -840l-72 -72zM1208 -256l72 72l328 -328l-72 -72zM1464 512l256 256l-256 256l72 72l328 -328l-256 -256l256 -256l-72 -72zM1464 1536l72 72l328 -328l-72 -72z" />
<glyph unicode="+" horiz-adv-x="512" d="M-72 0l256 256l-256 256l72 72l328 -328l-328 -328zM-72 1024l256 256l-256 256l72 72l328 -328l-328 -328zM184 -256l328 328l72 -72l-256 -256l256 -256l-72 -72zM184 768l328 328l72 -72l-256 -256l256 -256l-72 -72z" />
<glyph unicode="," horiz-adv-x="512" d="M-72 0l256 256l-256 256l72 72l328 -328l-328 -328zM-72 -512l584 584l72 -72l-584 -584zM-72 1024l72 72l584 -584l-72 -72zM184 1280l328 328l72 -72l-256 -256l256 -256l-72 -72z" />
<glyph unicode="-" horiz-adv-x="512" d="M-72 0l584 584l72 -72l-584 -584zM-72 512l584 584l72 -72l-584 -584zM-72 1024l256 256l-256 256l72 72l328 -328l-328 -328zM184 -256l328 328l72 -72l-256 -256l256 -256l-72 -72z" />
<glyph unicode="." horiz-adv-x="512" d="M-72 -512l512 512l-512 512l512 512l-512 512l72 72l584 -584l-512 -512l512 -512l-584 -584z" />
<glyph unicode="/" horiz-adv-x="1024" d="M-72 0l72 72l584 -584l-72 -72zM-72 512l256 256l-256 256l72 72l328 -328l-328 -328zM-72 1536l72 72l840 -840l-512 -512l768 -768l-72 -72l-840 840l512 512zM440 1536l72 72l584 -584l-72 -72zM696 256l328 328l72 -72l-256 -256l256 -256l-72 -72z" />
<glyph unicode="0" d="M-72 0l328 328l840 -840l-72 -72l-768 768l-256 -256zM-72 -512l328 328l328 -328l-72 -72l-256 256l-256 -256zM-72 1024l72 72l256 -256l768 768l72 -72l-840 -840zM-72 1536l72 72l256 -256l256 256l72 -72l-328 -328zM440 512l840 840l840 -840l-840 -840zM584 512 l696 -696l696 696l-696 696zM952 512l328 328l328 -328l-328 -328zM1096 512l184 -184l184 184l-184 184zM1464 -512l584 584l72 -72l-584 -584zM1464 1536l72 72l584 -584l-72 -72z" />
<glyph unicode="1" d="M-72 0l1608 1608l72 -72l-1608 -1608zM-72 -512l1608 1608l72 -72l-1608 -1608zM-72 512l328 328l72 -72l-328 -328zM-72 1024l584 584l72 -72l-584 -584zM440 -512l328 328l72 -72l-328 -328zM440 1024l584 584l72 -72l-584 -584zM952 0l1096 1096l72 -72l-1096 -1096z M952 -512l1096 1096l72 -72l-1096 -1096zM1464 -512l584 584l72 -72l-584 -584zM1720 1280l328 328l72 -72l-328 -328z" />
<glyph unicode="2" d="M-72 0l512 512l-256 256l72 72l256 -256l440 440l-256 256l72 72l256 -256l512 512l328 -328l-72 -72l-256 256l-440 -440l256 -256l-72 -72l-256 256l-440 -440l256 -256l-72 -72l-256 256l-440 -440l256 -256l-72 -72zM-72 1024l256 256l-256 256l72 72l256 -256 l256 256l72 -72l-256 -256l256 -256l-72 -72l-256 256l-256 -256zM440 0l72 72l256 -256l440 440l-256 256l72 72l256 -256l440 440l-256 256l72 72l256 -256l256 256l72 -72l-256 -256l256 -256l-72 -72l-256 256l-440 -440l256 -256l-72 -72l-256 256l-440 -440l256 -256 l-72 -72l-256 256l-256 -256l-72 72l256 256zM1208 -256l72 72l256 -256l440 440l-256 256l72 72l328 -328l-584 -584z" />
<glyph unicode="3" d="M-72 0l72 72l256 -256l184 184l-512 512l72 72l512 -512l184 184l-768 768l72 72l840 -840l-840 -840l-72 72l256 256zM-72 1536l72 72l1024 -1024l184 184l-768 768l72 72l768 -768l184 184l-512 512l72 72l512 -512l184 184l-256 256l72 72l256 -256l256 256l72 -72 l-1096 -1096zM440 -512l1608 1608l72 -72l-1608 -1608zM952 -512l1096 1096l72 -72l-1096 -1096zM1464 -512l584 584l72 -72l-584 -584z" />
<glyph unicode="4" d="M-72 0l584 584l584 -584l-256 -256l256 -256l-72 -72l-256 256l-256 -256zM-72 512l1096 1096l256 -256l256 256l584 -584l-584 -584l-584 584l256 256l-184 184l-440 -440l952 -952l512 512l72 -72l-512 -512l512 -512l-72 -72l-512 512l-256 -256l-72 72l256 256 l-952 952l-512 -512zM-72 1536l72 72l328 -328l-72 -72zM72 0l440 -440l440 440l-440 440zM1096 1024l440 -440l440 440l-440 440z" />
<glyph unicode="5" d="M-72 0l256 256l-256 256l72 72l328 -328l-328 -328zM-72 1024l584 584l72 -72l-584 -584zM184 -256l328 328l256 -256l512 512l72 -72l-512 -512l256 -256l-72 -72l-512 512l-184 -184l256 -256l-72 -72zM184 768l840 840l72 -72l-768 -768l440 -440l512 512l584 -584 l-584 -584l-72 72l512 512l-440 440l-512 -512zM696 768l840 840l72 -72l-256 -256l184 -184l512 512l72 -72l-584 -584l-256 256l-512 -512zM1464 -512l584 584l72 -72l-584 -584zM1720 768l328 328l72 -72l-256 -256l256 -256l-72 -72z" />
<glyph unicode="6" d="M-72 0l72 72l328 -328l-328 -328l-72 72l256 256zM-72 512l512 512l-184 184l-256 -256l-72 72l328 328l328 -328l-584 -584zM184 256l328 328l328 -328l-328 -328zM328 256l184 -184l184 184l-184 184zM440 -512l328 328l328 -328l-72 -72l-256 256l-256 -256zM440 1536 l72 72l256 -256l256 256l72 -72l-328 -328zM696 768l328 328l328 -328l-328 -328zM840 768l184 -184l184 184l-184 184zM952 0l328 328l328 -328l-328 -328zM1096 0l184 -184l184 184l-184 184zM1208 1280l328 328l72 -72l-256 -256l184 -184l512 512l72 -72l-584 -584z M1464 512l584 584l72 -72l-512 -512l184 -184l256 256l72 -72l-328 -328zM1464 -512l584 584l72 -72l-584 -584z" />
<glyph unicode="7" d="M-72 0l256 256l-256 256l72 72l328 -328l-328 -328zM-72 -512l768 768l-512 512l840 840l256 -256l256 256l72 -72l-328 -328l-256 256l-696 -696l512 -512l-840 -840zM-72 1024l584 584l72 -72l-584 -584zM440 -512l768 768l-512 512l328 328l72 -72l-256 -256l512 -512 l-840 -840zM1208 -256l512 512l-512 512l840 840l72 -72l-768 -768l512 -512l-584 -584zM1464 -512l584 584l72 -72l-584 -584zM1720 768l328 328l72 -72l-256 -256l256 -256l-72 -72z" />
<glyph unicode="8" d="M-72 0l72 72l584 -584l-72 -72zM-72 512l256 256l-256 256l72 72l328 -328l-328 -328zM-72 1536l72 72l512 -512l184 184l-256 256l72 72l328 -328l-328 -328zM184 256l328 328l584 -584l-72 -72l-512 512l-184 -184l768 -768l-72 -72zM696 768l328 328l1096 -1096 l-72 -72l-1024 1024l-184 -184l768 -768l-256 -256l256 -256l-72 -72l-328 328l256 256zM952 1536l72 72l1096 -1096l-72 -72zM1464 1536l72 72l584 -584l-72 -72zM1720 -256l72 72l328 -328l-72 -72z" />
<glyph unicode="9" d="M-72 0l72 72l584 -584l-72 -72zM-72 512l1096 1096l72 -72l-1024 -1024l768 -768l-72 -72zM-72 1024l584 584l72 -72l-584 -584zM440 512l328 328l72 -72l-256 -256l768 -768l-328 -328l-72 72l256 256zM952 512l328 328l840 -840l-72 -72l-768 768l-184 -184l1024 -1024 l-72 -72zM952 1024l328 328l840 -840l-72 -72l-768 768l-256 -256zM1464 1536l72 72l584 -584l-72 -72z" />
<glyph unicode=":" horiz-adv-x="512" d="M-72 0l512 512l-512 512l584 584l72 -72l-512 -512l512 -512l-512 -512l512 -512l-72 -72z" />
<glyph unicode=";" horiz-adv-x="512" d="M-72 0l584 584l72 -72l-584 -584zM-72 512l256 256l-256 256l72 72l328 -328l-328 -328zM-72 1536l72 72l584 -584l-72 -72zM184 -256l328 328l72 -72l-256 -256l256 -256l-72 -72z" />
<glyph unicode="&#x3c;" horiz-adv-x="512" d="M-72 512l584 584l72 -72l-512 -512l512 -512l-72 -72zM-72 -512l328 328l72 -72l-328 -328zM-72 1536l72 72l328 -328l-72 -72z" />
<glyph unicode="=" horiz-adv-x="512" d="M-72 512l72 72l584 -584l-72 -72zM-72 -512l328 328l328 -328l-72 -72l-256 256l-256 -256zM-72 1024l72 72l584 -584l-72 -72zM-72 1536l72 72l256 -256l256 256l72 -72l-328 -328z" />
<glyph unicode="&#x3e;" horiz-adv-x="512" d="M-72 -2l512 512l-512 512l72 72l584 -584l-584 -586zM184 -258l72 72l328 -328l-72 -74zM184 1278l328 328l72 -72l-328 -330z" />
<glyph unicode="?" horiz-adv-x="1024" d="M-72 0l1024 1024l-512 512l72 72l584 -584l-768 -768l440 -440l256 256l72 -72l-584 -584l-72 72l256 256l-440 440l-256 -256zM-72 512l512 512l-512 512l72 72l584 -584l-584 -584zM-72 -512l328 328l72 -72l-328 -328zM696 256l328 328l72 -72l-328 -328z" />
<glyph unicode="@" d="M-72 0l72 72l584 -584l-72 -72zM-72 512l72 72l768 -768l696 696l-440 440l-256 -256l-72 72l328 328l584 -584l-840 -840zM-72 1024l584 584l72 -72l-584 -584zM184 768l840 840l1096 -1096l-1096 -1096l-72 72l1024 1024l-952 952l-696 -696l440 -440l256 256l72 -72 l-328 -328zM1464 -512l584 584l72 -72l-584 -584zM1720 1280l328 328l72 -72l-256 -256l256 -256l-72 -72z" />
<glyph unicode="A" horiz-adv-x="512" d="M-72 0l584 584l72 -72l-584 -584zM-72 512l584 584l72 -72l-584 -584zM-72 -512l584 584l72 -72l-584 -584zM-72 1024l584 584l72 -72l-584 -584z" />
<glyph unicode="B" d="M-72 0l256 256l-256 256l72 72l328 -328l-328 -328zM-72 -512l768 768l-768 768l72 72l768 -768l768 768l72 -72l-1608 -1608zM-72 1536l72 72l512 -512l512 512l72 -72l-584 -584zM440 -512l328 328l328 -328l-72 -72l-256 256l-256 -256zM696 768l840 840l584 -584 l-1024 -1024l512 -512l-72 -72l-584 584l1024 1024l-440 440l-768 -768zM1464 0l584 584l72 -72l-512 -512l512 -512l-72 -72z" />
<glyph unicode="C" d="M-72 512l72 72l256 -256l184 184l-256 256l584 584l256 -256l184 184l-256 256l72 72l328 -328l-328 -328l-256 256l-440 -440l256 -256l-328 -328zM-72 -512l840 840l512 -512l440 440l-256 256l328 328l328 -328l-72 -72l-256 256l-184 -184l256 -256l-584 -584 l-512 512l-768 -768zM-72 1024l584 584l72 -72l-584 -584zM440 -512l328 328l328 -328l-72 -72l-256 256l-256 -256zM696 768l72 72l256 -256l696 696l-256 256l72 72l584 -584l-72 -72l-256 256l-696 -696l256 -256l-72 -72zM1464 -512l584 584l72 -72l-584 -584z" />
<glyph unicode="D" d="M-72 0l72 72l256 -256l184 184l-256 256l512 512l-256 256l328 328l1352 -1352l-72 -72l-1280 1280l-184 -184l256 -256l-512 -512l256 -256l-328 -328zM-72 512l256 256l-256 256l72 72l328 -328l-328 -328zM-72 1536l72 72l256 -256l256 256l72 -72l-328 -328z M440 -512l328 328l328 -328l-72 -72l-256 256l-256 -256zM696 256l328 328l1096 -1096l-72 -72l-1024 1024l-184 -184l768 -768l-72 -72zM952 1536l72 72l1096 -1096l-72 -72zM1464 1536l72 72l584 -584l-72 -72z" />
<glyph unicode="E" horiz-adv-x="512" d="M-72 0l584 584l72 -72l-512 -512l512 -512l-72 -72zM-72 512l584 584l72 -72l-584 -584zM-72 1024l584 584l72 -72l-584 -584z" />
<glyph unicode="F" d="M-72 0l328 328l328 -328l-584 -584l-72 72l512 512l-184 184l-256 -256zM-72 512l328 328l840 -840l-584 -584l-72 72l512 512l-696 696l-256 -256zM-72 1024l328 328l1536 -1536l256 256l72 -72l-328 -328l-1536 1536l-256 -256zM440 1536l72 72l256 -256l256 256 l72 -72l-328 -328zM952 -512l328 328l328 -328l-72 -72l-256 256l-256 -256zM952 1024l584 584l72 -72l-512 -512l696 -696l256 256l72 -72l-328 -328zM1464 1024l584 584l72 -72l-512 -512l184 -184l256 256l72 -72l-328 -328z" />
<glyph unicode="G" d="M-72 0l72 72l584 -584l-72 -72zM-72 512l72 72l1096 -1096l-72 -72zM-72 1024l584 584l72 -72l-584 -584zM184 768l840 840l72 -72l-768 -768l184 -184l768 768l584 -584l-584 -584l-72 72l512 512l-440 440l-768 -768zM696 256l584 584l72 -72l-512 -512l440 -440 l768 768l72 -72l-840 -840zM1464 -512l584 584l72 -72l-584 -584zM1464 1536l72 72l584 -584l-72 -72z" />
<glyph unicode="H" horiz-adv-x="1024" d="M-72 0l328 328l328 -328l-584 -584l-72 72l512 512l-184 184l-256 -256zM-72 512l512 512l-184 184l-256 -256l-72 72l328 328l328 -328l-584 -584zM440 512l584 584l72 -72l-512 -512l184 -184l256 256l72 -72l-328 -328zM440 -512l584 584l72 -72l-584 -584zM440 1536 l72 72l256 -256l256 256l72 -72l-328 -328z" />
<glyph unicode="I" horiz-adv-x="512" d="M-72 0l584 584l72 -72l-584 -584zM-72 512l512 512l-512 512l72 72l584 -584l-584 -584zM-72 -512l584 584l72 -72l-584 -584z" />
<glyph unicode="J" d="M-72 0l328 328l840 -840l-72 -72l-768 768l-184 -184l512 -512l-72 -72zM-72 512l328 328l1352 -1352l-72 -72l-1280 1280l-256 -256zM-72 1024l328 328l1536 -1536l256 256l72 -72l-328 -328l-1536 1536l-256 -256zM440 1536l72 72l1280 -1280l256 256l72 -72l-328 -328 zM952 1536l72 72l768 -768l184 184l-512 512l72 72l584 -584l-328 -328z" />
<glyph unicode="K" d="M-72 0l328 328l256 -256l184 184l-440 440l-256 -256l-72 72l328 328l584 -584l-328 -328l-256 256l-256 -256zM-72 -512l328 328l72 -72l-328 -328zM-72 1024l584 584l72 -72l-584 -584zM440 -512l584 584l328 -328l-328 -328l-72 72l256 256l-184 184l-512 -512z M440 1024l584 584l72 -72l-512 -512l952 -952l512 512l72 -72l-584 -584zM952 1024l328 328l256 -256l512 512l72 -72l-584 -584l-256 256l-184 -184l440 -440l512 512l72 -72l-584 -584zM1464 -512l584 584l72 -72l-584 -584z" />
<glyph unicode="L" horiz-adv-x="1024" d="M-72 0l256 256l-256 256l1096 1096l72 -72l-1024 -1024l256 -256l-328 -328zM-72 -512l768 768l-256 256l584 584l72 -72l-512 -512l256 -256l-840 -840zM-72 1024l584 584l72 -72l-584 -584zM440 -512l584 584l72 -72l-584 -584z" />
<glyph unicode="M" d="M-72 0l256 256l-256 256l72 72l328 -328l-256 -256l184 -184l256 256l328 -328l-328 -328l-72 72l256 256l-184 184l-256 -256zM-72 1024l328 328l328 -328l-256 -256l184 -184l256 256l256 -256l512 512l328 -328l-256 -256l184 -184l256 256l72 -72l-328 -328l-328 328 l256 256l-184 184l-768 -768l-72 72l256 256l-184 184l-256 -256l-328 328l256 256l-184 184l-256 -256zM440 1536l72 72l256 -256l256 256l72 -72l-328 -328zM952 0l328 328l328 -328l-584 -584l-72 72l512 512l-184 184l-256 -256zM952 1024l584 584l72 -72l-584 -584z M1464 -512l328 328l328 -328l-72 -72l-256 256l-256 -256zM1720 1280l328 328l72 -72l-256 -256l256 -256l-72 -72z" />
<glyph unicode="N" d="M-72 0l768 768l-768 768l72 72l512 -512l184 184l-256 256l72 72l328 -328l-256 -256l440 -440l256 256l328 -328l-72 -72l-256 256l-256 -256l-256 256l-768 -768zM-72 512l256 256l-256 256l72 72l328 -328l-328 -328zM184 -256l328 328l512 -512l256 256l72 -72 l-328 -328l-512 512l-256 -256zM696 256l72 72l256 -256l256 256l256 -256l512 512l72 -72l-512 -512l512 -512l-72 -72l-256 256l-256 -256l-72 72l256 256l-440 440l-256 -256zM952 1024l256 256l-256 256l72 72l768 -768l256 256l72 -72l-328 -328l-512 512l-256 -256z M1464 1536l72 72l328 -328l-72 -72z" />
<glyph unicode="O" horiz-adv-x="512" d="M-72 0l72 72l584 -584l-72 -72zM-72 512l584 584l72 -72l-512 -512l512 -512l-72 -72zM-72 1024l584 584l72 -72l-584 -584z" />
<glyph unicode="P" d="M-72 0l328 328l840 -840l-72 -72l-768 768l-256 -256zM-72 512l328 328l1352 -1352l-72 -72l-1280 1280l-256 -256zM-72 -512l328 328l328 -328l-72 -72l-256 256l-256 -256zM-72 1024l584 584l72 -72l-584 -584zM440 1024l584 584l72 -72l-512 -512l1536 -1536l-72 -72z M952 1024l584 584l72 -72l-512 -512l1024 -1024l-72 -72zM1464 1024l328 328l328 -328l-72 -72l-256 256l-256 -256zM1720 768l72 72l328 -328l-72 -72z" />
<glyph unicode="Q" d="M-72 0l256 256l-256 256l72 72l328 -328l-256 -256l512 -512l-72 -72zM-72 1536l72 72l584 -584l-256 -256l1280 -1280l-72 -72l-768 768l-184 -184l512 -512l-72 -72l-584 584l256 256l-512 512l256 256zM440 1536l72 72l584 -584l-256 -256l184 -184l440 440l-512 512 l72 72l584 -584l-512 -512l256 -256l-72 -72l-584 584l256 256zM1464 0l256 256l-256 256l72 72l328 -328l-256 -256l512 -512l-72 -72zM1464 1536l72 72l584 -584l-256 -256l256 -256l-72 -72l-328 328l256 256z" />
<glyph unicode="R" horiz-adv-x="1024" d="M-72 0l1024 1024l-512 512l72 72l584 -584l-1096 -1096zM-72 512l512 512l-512 512l72 72l584 -584l-584 -584zM-72 -512l584 584l584 -584l-72 -72l-512 512l-512 -512zM696 256l328 328l72 -72l-256 -256l256 -256l-72 -72z" />
<glyph unicode="S" horiz-adv-x="1024" d="M-72 0l72 72l584 -584l-72 -72zM-72 512l72 72l512 -512l440 440l-512 512l72 72l584 -584l-512 -512l512 -512l-72 -72zM-72 1024l584 584l584 -584l-72 -72l-512 512l-440 -440l512 -512l-72 -72z" />
<glyph unicode="T" horiz-adv-x="1024" d="M-72 0l256 256l-256 256l72 72l328 -328l-328 -328zM-72 -512l1096 1096l72 -72l-1096 -1096zM-72 1024l72 72l512 -512l184 184l-768 768l72 72l840 -840l-328 -328zM440 -512l584 584l72 -72l-584 -584zM440 1536l72 72l584 -584l-72 -72z" />
<glyph unicode="U" horiz-adv-x="512" d="M-72 0l584 584l72 -72l-512 -512l512 -512l-72 -72zM-72 512l512 512l-512 512l72 72l584 -584l-584 -584z" />
<glyph unicode="V" d="M-72 0l256 256l-256 256l72 72l328 -328l-328 -328zM-72 -512l768 768l-768 768l72 72l256 -256l440 440l-256 256l72 72l512 -512l184 184l-256 256l72 72l328 -328l-328 -328l-256 256l-440 -440l768 -768l-72 -72l-256 256l-768 -768zM-72 1536l72 72l328 -328 l-72 -72zM440 -512l328 328l328 -328l-72 -72l-256 256l-256 -256zM696 768l72 72l256 -256l696 696l-256 256l72 72l584 -584l-72 -72l-256 256l-696 -696l1024 -1024l-72 -72zM1208 -256l72 72l328 -328l-72 -72zM1464 512l328 328l328 -328l-72 -72l-256 256l-184 -184 l512 -512l-72 -72z" />
<glyph unicode="W" d="M-72 0l512 512l-512 512l72 72l584 -584l-512 -512l440 -440l256 256l256 -256l256 256l72 -72l-328 -328l-256 256l-256 -256zM-72 1536l72 72l1536 -1536l184 184l-512 512l840 840l72 -72l-768 -768l440 -440l256 256l72 -72l-584 -584l-256 256l-256 -256l-256 256 l-256 -256l-72 72l328 328l256 -256l184 184zM440 1536l72 72l512 -512l512 512l72 -72l-584 -584zM1464 -512l584 584l72 -72l-584 -584zM1720 768l328 328l72 -72l-328 -328z" />
<glyph unicode="X" d="M-72 0l328 328l72 -72l-256 -256l256 -256l-72 -72zM-72 1024l256 256l-256 256l72 72l256 -256l256 256l72 -72l-256 -256l184 -184l256 256l584 -584l-72 -72l-256 256l-440 -440l256 -256l-72 -72l-584 584l72 72l256 -256l440 440l-184 184l-256 -256l-256 256 l-256 -256zM440 0l72 72l256 -256l440 440l-256 256l72 72l256 -256l256 256l72 -72l-256 -256l256 -256l-256 -256l184 -184l440 440l-256 256l72 72l328 -328l-584 -584l-328 328l256 256l-184 184l-440 -440l256 -256l-72 -72l-256 256l-256 -256l-72 72l256 256z M1208 1280l328 328l328 -328l-72 -72l-256 256l-184 -184l440 -440l256 256l72 -72l-256 -256l256 -256l-72 -72z" />
<glyph unicode="Y" horiz-adv-x="512" d="M-72 0l256 256l-256 256l72 72l328 -328l-328 -328zM-72 -512l584 584l72 -72l-584 -584zM-72 1024l584 584l72 -72l-584 -584zM184 768l328 328l72 -72l-256 -256l256 -256l-72 -72z" />
<glyph unicode="Z" d="M-72 -512l512 512l-512 512l72 72l256 -256l696 696l-256 256l72 72l328 -328l-768 -768l256 -256l-584 -584zM184 768l256 256l-256 256l328 328l72 -72l-256 -256l256 -256l-328 -328zM440 -512l512 512l-256 256l768 768l-512 512l72 72l256 -256l256 256l72 -72 l-256 -256l256 -256l-768 -768l256 -256l-256 -256l256 -256l-72 -72l-256 256l-256 -256zM1208 -256l256 256l-256 256l768 768l-256 256l72 72l328 -328l-256 -256l256 -256l-72 -72l-256 256l-440 -440l256 -256l-328 -328zM1464 -512l512 512l-256 256l72 72l328 -328 l-256 -256l256 -256l-72 -72l-256 256l-256 -256z" />
<glyph unicode="[" horiz-adv-x="512" d="M-72 0l512 512l-256 256l72 72l328 -328l-584 -584zM-72 1024l584 584l72 -72l-584 -584zM184 -256l72 72l328 -328l-72 -72z" />
<glyph unicode="\" horiz-adv-x="1024" d="M-72 0l72 72l584 -584l-72 -72zM-72 512l72 72l256 -256l440 440l-768 768l72 72l1096 -1096l-72 -72l-256 256l-440 -440l768 -768l-72 -72zM-72 1024l72 72l328 -328l-72 -72zM440 1536l72 72l584 -584l-72 -72zM696 256l72 72l328 -328l-72 -72z" />
<glyph unicode="]" horiz-adv-x="512" d="M-72 512l584 584l72 -72l-512 -512l256 -256l-72 -72zM-72 -512l584 584l72 -72l-584 -584zM-72 1536l72 72l328 -328l-72 -72z" />
<glyph unicode="^" d="M-72 0l72 72l256 -256l768 768l1096 -1096l-72 -72l-1024 1024l-1024 -1024l-72 72l256 256zM-72 512l256 256l-256 256l72 72l256 -256l768 768l840 -840l-72 -72l-768 768l-1024 -1024zM184 256l840 840l768 -768l256 256l72 -72l-256 -256l256 -256l-72 -72 l-1024 1024l-768 -768zM184 1280l328 328l72 -72l-328 -328zM440 -512l584 584l584 -584l-72 -72l-512 512l-512 -512zM1464 1536l72 72l584 -584l-72 -72z" />
<glyph unicode="_" horiz-adv-x="512" d="M-72 512l512 512l-256 256l328 328l72 -72l-256 -256l256 -256l-584 -584zM-72 -512l512 512l-256 256l328 328l72 -72l-256 -256l256 -256l-584 -584z" />
<glyph unicode="`" horiz-adv-x="512" d="M-72 0l72 72l584 -584l-72 -72zM-72 512l72 72l584 -584l-72 -72zM-72 1024l72 72l256 -256l256 256l72 -72l-328 -328zM-72 1536l72 72l256 -256l256 256l72 -72l-328 -328z" />
<glyph unicode="a" horiz-adv-x="512" d="M-72 0l72 72l584 -584l-72 -72zM-72 512l72 72l584 -584l-72 -72zM-72 1024l72 72l584 -584l-72 -72zM-72 1536l72 72l584 -584l-72 -72z" />
<glyph unicode="b" d="M-72 0l584 584l1024 -1024l440 440l-768 768l72 72l840 -840l-584 -584l-1024 1024l-512 -512zM-72 512l256 256l-256 256l72 72l328 -328l-328 -328zM-72 -512l584 584l584 -584l-72 -72l-512 512l-512 -512zM-72 1536l72 72l768 -768l768 768l72 -72l-768 -768 l768 -768l-72 -72zM440 1536l72 72l256 -256l256 256l72 -72l-328 -328zM1464 1024l584 584l72 -72l-512 -512l512 -512l-72 -72z" />
<glyph unicode="c" d="M-72 0l72 72l584 -584l-72 -72zM-72 512l256 256l-256 256l72 72l328 -328l-328 -328zM-72 1536l72 72l840 -840l-512 -512l440 -440l256 256l328 -328l-328 -328l-72 72l256 256l-184 184l-256 -256l-584 584l512 512zM696 256l584 584l72 -72l-256 -256l696 -696 l256 256l72 -72l-584 -584l-72 72l256 256l-696 696l-256 -256zM696 1280l328 328l72 -72l-256 -256l184 -184l256 256l584 -584l-256 -256l184 -184l256 256l72 -72l-328 -328l-328 328l256 256l-440 440l-256 -256zM1464 1536l72 72l584 -584l-72 -72z" />
<glyph unicode="d" d="M-72 0l72 72l328 -328l-328 -328l-72 72l256 256zM-72 512l1096 1096l72 -72l-1096 -1096zM-72 1024l584 584l72 -72l-584 -584zM184 256l1352 1352l72 -72l-1280 -1280l184 -184l256 256l512 -512l256 256l328 -328l-328 -328l-72 72l256 256l-184 184l-256 -256 l-512 512l-256 -256zM440 -512l328 328l328 -328l-72 -72l-256 256l-256 -256zM952 512l1096 1096l72 -72l-1024 -1024l184 -184l768 768l72 -72l-840 -840zM1720 256l328 328l72 -72l-256 -256l256 -256l-72 -72z" />
<glyph unicode="e" horiz-adv-x="512" d="M-72 -512l512 512l-512 512l72 72l584 -584l-584 -584zM-72 1024l72 72l584 -584l-72 -72zM-72 1536l72 72l584 -584l-72 -72z" />
<glyph unicode="f" d="M-72 0l256 256l-256 256l72 72l328 -328l-328 -328zM-72 1024l72 72l512 -512l696 696l-256 256l72 72l328 -328l-840 -840zM-72 1536l72 72l512 -512l184 184l-256 256l72 72l328 -328l-328 -328zM184 -256l1536 1536l-256 256l72 72l328 -328l-1536 -1536l256 -256 l-72 -72zM696 -256l840 840l584 -584l-72 -72l-512 512l-696 -696l256 -256l-72 -72zM1208 -256l328 328l584 -584l-72 -72l-512 512l-184 -184l256 -256l-72 -72zM1720 768l328 328l72 -72l-256 -256l256 -256l-72 -72z" />
<glyph unicode="g" d="M-72 0l72 72l584 -584l-72 -72zM-72 512l1096 1096l72 -72l-1096 -1096zM-72 1024l584 584l72 -72l-584 -584zM184 256l584 584l584 -584l-72 -72l-512 512l-440 -440l768 -768l-72 -72zM696 256l72 72l512 -512l440 440l-768 768l328 328l840 -840l-72 -72l-768 768 l-184 -184l768 -768l-584 -584zM1464 -512l584 584l72 -72l-584 -584zM1464 1536l72 72l584 -584l-72 -72z" />
<glyph unicode="h" horiz-adv-x="1024" d="M-72 0l72 72l256 -256l184 184l-512 512l72 72l584 -584l-328 -328zM-72 1024l72 72l256 -256l184 184l-512 512l72 72l584 -584l-328 -328zM440 512l328 328l328 -328l-72 -72l-256 256l-184 -184l512 -512l-72 -72zM440 -512l328 328l328 -328l-72 -72l-256 256 l-256 -256zM440 1536l72 72l584 -584l-72 -72z" />
<glyph unicode="i" horiz-adv-x="512" d="M-72 0l72 72l584 -584l-72 -72zM-72 512l72 72l584 -584l-72 -72zM-72 1024l584 584l72 -72l-512 -512l512 -512l-72 -72z" />
<glyph unicode="j" d="M-72 0l1280 1280l-256 256l72 72l328 -328l-1352 -1352zM-72 512l768 768l-184 184l-512 -512l-72 72l584 584l328 -328l-840 -840zM184 -256l1536 1536l-256 256l72 72l328 -328l-1536 -1536l256 -256l-72 -72zM696 -256l1352 1352l72 -72l-1280 -1280l256 -256l-72 -72 zM1208 -256l840 840l72 -72l-768 -768l184 -184l512 512l72 -72l-584 -584z" />
<glyph unicode="k" d="M-72 0l72 72l584 -584l-72 -72zM-72 512l72 72l256 -256l184 184l-512 512l72 72l584 -584l-328 -328zM-72 1536l72 72l328 -328l-72 -72zM440 0l1096 1096l584 -584l-72 -72l-512 512l-952 -952l512 -512l-72 -72zM440 1024l256 256l-256 256l72 72l328 -328l-256 -256 l184 -184l440 440l-256 256l72 72l328 -328l-584 -584zM952 0l584 584l328 -328l-256 -256l512 -512l-72 -72l-584 584l256 256l-184 184l-440 -440l512 -512l-72 -72zM1464 1536l72 72l584 -584l-72 -72z" />
<glyph unicode="l" horiz-adv-x="1024" d="M-72 0l72 72l584 -584l-72 -72zM-72 512l256 256l-256 256l72 72l328 -328l-256 -256l1024 -1024l-72 -72zM-72 1536l72 72l840 -840l-256 -256l512 -512l-72 -72l-584 584l256 256zM440 1536l72 72l584 -584l-72 -72z" />
<glyph unicode="m" d="M-72 0l72 72l328 -328l-328 -328l-72 72l256 256zM-72 512l72 72l512 -512l184 184l-256 256l72 72l328 -328l-328 -328zM-72 1024l72 72l256 -256l184 184l-256 256l328 328l256 -256l256 256l72 -72l-328 -328l-256 256l-184 -184l256 -256l-328 -328zM696 -256 l328 328l256 -256l184 184l-768 768l72 72l256 -256l184 184l-256 256l328 328l256 -256l184 184l-256 256l72 72l328 -328l-328 -328l-256 256l-184 -184l256 -256l-256 -256l512 -512l-328 -328l-256 256l-184 -184l256 -256l-72 -72zM1464 512l72 72l584 -584l-72 -72z M1464 -512l328 328l328 -328l-72 -72l-256 256l-256 -256zM1720 768l328 328l72 -72l-256 -256l256 -256l-72 -72z" />
<glyph unicode="n" d="M-72 0l328 328l256 -256l440 440l-256 256l328 328l72 -72l-256 -256l256 -256l-256 -256l768 -768l-72 -72l-768 768l-768 -768l-72 72l512 512l-184 184l-256 -256zM-72 512l768 768l-256 256l72 72l328 -328l-512 -512l256 -256l-72 -72l-256 256l-256 -256zM-72 1024 l328 328l72 -72l-328 -328zM440 -512l328 328l328 -328l-72 -72l-256 256l-256 -256zM952 1536l72 72l512 -512l512 512l72 -72l-256 -256l256 -256l-72 -72l-256 256l-440 -440l256 -256l-328 -328l-72 72l256 256l-256 256l256 256zM1464 0l512 512l-256 256l72 72 l328 -328l-512 -512l256 -256l-72 -72z" />
<glyph unicode="o" horiz-adv-x="512" d="M-72 0l512 512l-512 512l72 72l584 -584l-584 -584zM-72 -512l584 584l72 -72l-584 -584zM-72 1536l72 72l584 -584l-72 -72z" />
<glyph unicode="p" d="M-72 0l1280 1280l-256 256l72 72l328 -328l-1352 -1352zM-72 512l768 768l-256 256l72 72l328 -328l-840 -840zM-72 -512l1608 1608l584 -584l-72 -72l-512 512l-1536 -1536zM-72 1024l256 256l-256 256l72 72l328 -328l-328 -328zM440 -512l1096 1096l584 -584l-72 -72 l-512 512l-1024 -1024zM952 -512l328 328l72 -72l-328 -328zM1464 0l72 72l328 -328l-328 -328l-72 72l256 256zM1464 1536l72 72l584 -584l-72 -72z" />
<glyph unicode="q" d="M-72 0l584 584l256 -256l184 184l-440 440l-512 -512l-72 72l584 584l512 -512l256 256l72 -72l-584 -584l-256 256l-512 -512zM-72 -512l584 584l256 -256l1280 1280l72 -72l-768 -768l184 -184l512 512l72 -72l-584 -584l-256 256l-512 -512l-256 256l-512 -512z M-72 1024l584 584l256 -256l256 256l72 -72l-328 -328l-256 256l-512 -512zM952 -512l328 328l256 -256l512 512l72 -72l-584 -584l-256 256l-256 -256zM952 1024l328 328l256 -256l512 512l72 -72l-584 -584l-256 256l-256 -256z" />
<glyph unicode="r" horiz-adv-x="1024" d="M-72 -512l512 512l-512 512l72 72l584 -584l-584 -584zM-72 1024l72 72l1096 -1096l-584 -584l-72 72l512 512zM-72 1536l72 72l512 -512l512 512l72 -72l-584 -584zM696 768l328 328l72 -72l-256 -256l256 -256l-72 -72z" />
<glyph unicode="s" horiz-adv-x="1024" d="M-72 0l584 584l72 -72l-512 -512l440 -440l512 512l72 -72l-584 -584zM-72 512l1096 1096l72 -72l-512 -512l512 -512l-584 -584l-72 72l512 512l-440 440l-512 -512zM-72 1024l584 584l72 -72l-584 -584z" />
<glyph unicode="t" horiz-adv-x="1024" d="M-72 0l584 584l328 -328l-840 -840l-72 72l768 768l-184 184l-512 -512zM-72 512l256 256l-256 256l72 72l328 -328l-328 -328zM-72 1536l72 72l1096 -1096l-72 -72zM440 -512l584 584l72 -72l-584 -584zM440 1536l72 72l584 -584l-72 -72z" />
<glyph unicode="u" horiz-adv-x="512" d="M-72 -512l512 512l-512 512l72 72l584 -584l-584 -584zM-72 1024l584 584l72 -72l-512 -512l512 -512l-72 -72z" />
<glyph unicode="v" d="M-72 0l512 512l-184 184l-256 -256l-72 72l328 328l328 -328l-256 -256l440 -440l768 768l72 -72l-256 -256l768 -768l-72 -72l-768 768l-768 -768l-72 72l256 256l-440 440l-256 -256zM-72 -512l328 328l72 -72l-328 -328zM-72 1024l584 584l72 -72l-256 -256l696 -696 l1024 1024l72 -72l-1352 -1352l-72 72l256 256l-696 696l-256 -256zM696 1280l328 328l72 -72l-256 -256l184 -184l512 512l72 -72l-584 -584zM952 -512l328 328l328 -328l-72 -72l-256 256l-256 -256zM1720 256l328 328l72 -72l-256 -256l256 -256l-72 -72zM1720 768 l328 328l72 -72l-328 -328z" />
<glyph unicode="w" d="M-72 0l512 512l-512 512l584 584l256 -256l256 256l328 -328l-72 -72l-256 256l-256 -256l-256 256l-440 -440l512 -512l-584 -584zM-72 -512l1280 1280l-184 184l-256 -256l-328 328l72 72l256 -256l256 256l256 -256l256 256l584 -584l-72 -72l-256 256l-440 -440 l768 -768l-72 -72l-840 840l512 512l-184 184l-1536 -1536zM440 -512l584 584l584 -584l-72 -72l-512 512l-512 -512zM1464 1536l72 72l584 -584l-72 -72zM1720 256l72 72l328 -328l-72 -72z" />
<glyph unicode="x" d="M-72 0l72 72l256 -256l184 184l-256 256l584 584l72 -72l-256 -256l440 -440l256 256l72 -72l-584 -584l-72 72l256 256l-440 440l-184 -184l256 -256l-256 -256l256 -256l-72 -72l-256 256l-256 -256l-72 72l256 256zM-72 1024l328 328l72 -72l-256 -256l184 -184 l440 440l-256 256l72 72l256 -256l256 256l72 -72l-840 -840zM952 512l256 256l-256 256l72 72l256 -256l256 256l256 -256l184 184l-440 440l-256 -256l-72 72l328 328l584 -584l-328 -328l-256 256l-184 -184l440 -440l256 256l72 -72l-256 -256l256 -256l-72 -72 l-256 256l-256 -256l-72 72l256 256l-440 440l-256 -256zM1208 -256l72 72l256 -256l256 256l72 -72l-328 -328z" />
<glyph unicode="y" horiz-adv-x="512" d="M-72 0l72 72l584 -584l-72 -72zM-72 512l256 256l-256 256l72 72l328 -328l-328 -328zM-72 1536l72 72l584 -584l-72 -72zM184 256l328 328l72 -72l-256 -256l256 -256l-72 -72z" />
<glyph unicode="z" d="M-72 0l256 256l-256 256l72 72l512 -512l768 768l256 -256l512 512l72 -72l-256 -256l256 -256l-72 -72l-256 256l-256 -256l-256 256l-768 -768l-256 256l-256 -256zM-72 1024l328 328l256 -256l256 256l72 -72l-328 -328l-256 256l-256 -256zM184 -256l72 72l256 -256 l768 768l256 -256l256 256l72 -72l-328 -328l-256 256l-440 -440l256 -256l-72 -72l-256 256l-256 -256zM184 768l72 72l256 -256l696 696l-256 256l72 72l512 -512l512 512l72 -72l-584 -584l-256 256l-768 -768zM1208 -256l72 72l256 -256l512 512l72 -72l-256 -256 l256 -256l-72 -72l-256 256l-256 -256z" />
<glyph unicode="{" horiz-adv-x="512" d="M-72 512l584 584l72 -72l-512 -512l512 -512l-72 -72zM-72 -512l328 328l328 -328l-72 -72l-256 256l-256 -256zM-72 1536l72 72l256 -256l256 256l72 -72l-328 -328z" />
<glyph unicode="|" horiz-adv-x="1024" d="M-72 0l72 72l584 -584l-72 -72zM-72 512l328 328l512 -512l256 256l72 -72l-328 -328l-512 512l-256 -256zM-72 1536l72 72l840 -840l-72 -72zM184 256l72 72l840 -840l-72 -72zM440 1536l72 72l584 -584l-72 -72z" />
<glyph unicode="}" horiz-adv-x="512" d="M-72 0l512 512l-512 512l72 72l584 -584l-584 -584zM-72 -512l328 328l328 -328l-72 -72l-256 256l-256 -256zM-72 1536l72 72l256 -256l256 256l72 -72l-328 -328z" />
<glyph unicode="~" d="M-72 0l256 256l-256 256l72 72l328 -328l-328 -328zM-72 1024l72 72l1096 -1096l-72 -72zM-72 1536l72 72l1024 -1024l256 256l72 -72l-328 -328zM184 -256l328 328l512 -512l440 440l-256 256l328 328l584 -584l-72 -72l-512 512l-184 -184l256 -256l-584 -584l-512 512 l-184 -184l256 -256l-72 -72zM440 1536l72 72l328 -328l-72 -72zM952 1024l584 584l72 -72l-584 -584zM1464 -512l328 328l328 -328l-72 -72l-256 256l-256 -256zM1464 1024l328 328l328 -328l-72 -72l-256 256l-184 -184l512 -512l-72 -72z" />
<glyph unicode="&#xa1;" horiz-adv-x="1024" d="M-72 0l1096 1096l72 -72l-1024 -1024l512 -512l-72 -72zM-72 512l1096 1096l72 -72l-1096 -1096zM-72 1024l584 584l72 -72l-584 -584zM440 0l584 584l72 -72l-512 -512l512 -512l-72 -72z" />
<glyph unicode="&#xa2;" d="M-72 0l512 512l-184 184l-256 -256l-72 72l328 328l328 -328l-512 -512l440 -440l768 768l840 -840l-72 -72l-512 512l-512 -512l-72 72l512 512l-184 184l-768 -768zM-72 1536l72 72l512 -512l512 512l72 -72l-512 -512l440 -440l512 512l72 -72l-1096 -1096l-72 72 l512 512zM952 1024l584 584l584 -584l-512 -512l184 -184l256 256l72 -72l-328 -328l-328 328l512 512l-440 440l-512 -512z" />
<glyph unicode="&#xa3;" horiz-adv-x="512" d="M-72 0l256 256l-256 256l72 72l584 -584l-584 -584l-72 72l512 512l-184 184l-256 -256zM-72 1024l584 584l72 -72l-512 -512l184 -184l256 256l72 -72l-256 -256l256 -256l-72 -72z" />
<glyph unicode="&#xa5;" horiz-adv-x="512" d="M-72 0l72 72l584 -584l-72 -72zM-72 512l512 512l-512 512l72 72l584 -584l-584 -584zM184 256l328 328l72 -72l-256 -256l256 -256l-72 -72z" />
<glyph unicode="&#xa7;" horiz-adv-x="512" d="M-72 512l328 328l328 -328l-328 -328zM-72 -512l584 584l72 -72l-584 -584zM-72 1024l584 584l72 -72l-584 -584zM72 512l184 -184l184 184l-184 184z" />
<glyph unicode="&#xa8;" horiz-adv-x="512" d="M-72 0l72 72l584 -584l-72 -72zM-72 512l512 512l-512 512l72 72l584 -584l-512 -512l512 -512l-72 -72z" />
<glyph unicode="&#xa9;" d="M-72 0l72 72l584 -584l-72 -72zM-72 512l72 72l328 -328l-72 -72zM-72 1024l72 72l840 -840l-256 -256l512 -512l-72 -72l-584 584l256 256zM-72 1536l72 72l1280 -1280l256 256l584 -584l-72 -72l-512 512l-440 -440l512 -512l-72 -72l-584 584l256 256zM440 1536l72 72 l768 -768l256 256l584 -584l-72 -72l-512 512l-256 -256zM952 1536l72 72l328 -328l-72 -72zM1464 0l72 72l584 -584l-72 -72zM1464 1536l72 72l584 -584l-72 -72z" />
<glyph unicode="&#xaa;" horiz-adv-x="1024" d="M-72 0l256 256l-256 256l1096 1096l72 -72l-1024 -1024l184 -184l256 256l72 -72l-584 -584zM-72 -512l1024 1024l-256 256l72 72l328 -328l-1096 -1096zM-72 1024l256 256l-256 256l72 72l256 -256l256 256l72 -72l-584 -584zM696 -256l72 72l328 -328l-72 -72z" />
<glyph unicode="&#xab;" horiz-adv-x="1024" d="M-72 0l72 72l256 -256l440 440l-256 256l584 584l72 -72l-512 -512l512 -512l-72 -72l-256 256l-440 -440l256 -256l-72 -72zM-72 512l1096 1096l72 -72l-1024 -1024l256 -256l-72 -72zM-72 1024l584 584l72 -72l-584 -584zM696 -256l72 72l328 -328l-72 -72z" />
<glyph unicode="&#xac;" horiz-adv-x="1024" d="M-72 0l768 768l-512 512l328 328l72 -72l-256 -256l440 -440l256 256l72 -72l-768 -768l512 -512l-328 -328l-72 72l256 256l-440 440l-256 -256zM-72 512l256 256l-256 256l72 72l328 -328l-328 -328zM-72 -512l328 328l72 -72l-328 -328zM696 256l328 328l72 -72 l-256 -256l256 -256l-72 -72zM696 1280l328 328l72 -72l-328 -328z" />
<glyph unicode="&#xae;" horiz-adv-x="1024" d="M-72 0l72 72l256 -256l440 440l-768 768l72 72l840 -840l-256 -256l184 -184l256 256l72 -72l-584 -584l-72 72l256 256l-184 184l-256 -256zM-72 512l72 72l328 -328l-72 -72zM-72 1536l72 72l256 -256l256 256l72 -72l-328 -328zM440 1024l584 584l72 -72l-584 -584z M696 768l328 328l72 -72l-256 -256l256 -256l-72 -72z" />
<glyph unicode="&#xaf;" horiz-adv-x="512" d="M-72 512l72 72l584 -584l-256 -256l256 -256l-72 -72l-328 328l256 256zM-72 1536l72 72l584 -584l-256 -256l256 -256l-72 -72l-328 328l256 256z" />
<glyph unicode="&#xb0;" horiz-adv-x="1024" d="M-72 0l72 72l512 -512l512 512l72 -72l-584 -584zM-72 512l584 584l72 -72l-512 -512l256 -256l-72 -72zM-72 1024l584 584l584 -584l-72 -72l-512 512l-512 -512zM440 0l512 512l-256 256l72 72l328 -328l-584 -584z" />
<glyph unicode="&#xb1;" horiz-adv-x="512" d="M-72 0l584 584l72 -72l-256 -256l256 -256l-72 -72l-256 256l-256 -256zM-72 512l256 256l-256 256l72 72l256 -256l256 256l72 -72l-584 -584zM-72 -512l328 328l328 -328l-72 -72l-256 256l-256 -256zM-72 1536l72 72l256 -256l256 256l72 -72l-328 -328z" />
<glyph unicode="&#xb4;" horiz-adv-x="512" d="M-72 0l328 328l328 -328l-72 -72l-256 256l-256 -256zM-72 -512l328 328l328 -328l-72 -72l-256 256l-256 -256zM-72 1024l72 72l584 -584l-72 -72zM-72 1536l72 72l584 -584l-72 -72z" />
<glyph unicode="&#xb5;" d="M-72 0l256 256l-256 256l72 72l328 -328l-328 -328zM-72 -512l768 768l-768 768l72 72l840 -840l-840 -840zM-72 1536l72 72l1280 -1280l696 696l-512 512l72 72l584 -584l-1608 -1608l-72 72l768 768zM440 1536l72 72l840 -840l-72 -72zM952 -512l1096 1096l72 -72 l-1096 -1096zM952 1536l72 72l584 -584l-72 -72zM1464 -512l584 584l72 -72l-584 -584z" />
<glyph unicode="&#xb6;" d="M-72 0l256 256l-256 256l72 72l328 -328l-328 -328zM-72 -512l768 768l-256 256l584 584l72 -72l-256 -256l696 -696l184 184l-256 256l584 584l72 -72l-512 -512l256 -256l-584 -584l-72 72l256 256l-696 696l-184 -184l256 -256l-840 -840zM-72 1024l584 584l72 -72 l-512 -512l184 -184l768 768l256 -256l256 256l72 -72l-328 -328l-256 256l-768 -768zM440 -512l584 584l72 -72l-584 -584zM1208 768l840 840l72 -72l-840 -840zM1464 -512l584 584l72 -72l-584 -584z" />
<glyph unicode="&#xb7;" horiz-adv-x="1024" d="M-72 0l328 328l328 -328l-584 -584l-72 72l512 512l-184 184l-256 -256zM-72 512l328 328l512 -512l256 256l72 -72l-328 -328l-512 512l-256 -256zM-72 1024l584 584l72 -72l-584 -584zM440 -512l584 584l72 -72l-584 -584zM440 1024l584 584l72 -72l-512 -512l184 -184 l256 256l72 -72l-328 -328z" />
<glyph unicode="&#xb8;" d="M-72 0l256 256l-256 256l72 72l256 -256l440 440l-768 768l72 72l768 -768l440 440l-256 256l72 72l256 -256l256 256l584 -584l-72 -72l-512 512l-184 -184l512 -512l-72 -72l-512 512l-184 -184l256 -256l-72 -72l-256 256l-440 -440l256 -256l-72 -72l-256 256 l-184 -184l512 -512l-72 -72l-512 512l-184 -184l512 -512l-72 -72zM-72 1024l72 72l328 -328l-72 -72zM440 1536l72 72l328 -328l-72 -72zM952 0l72 72l512 -512l184 184l-768 768l72 72l768 -768l184 184l-512 512l72 72l584 -584l-584 -584z" />
<glyph unicode="&#xba;" horiz-adv-x="1024" d="M-72 512l1096 1096l72 -72l-1024 -1024l256 -256l-72 -72zM-72 -512l1024 1024l-256 256l72 72l328 -328l-1096 -1096zM-72 1536l72 72l328 -328l-72 -72zM696 -256l72 72l328 -328l-72 -72z" />
<glyph unicode="&#xbb;" horiz-adv-x="1024" d="M-72 0l512 512l-512 512l72 72l256 -256l440 440l-256 256l72 72l584 -584l-72 -72l-256 256l-440 -440l256 -256l-584 -584zM-72 -512l1024 1024l-256 256l72 72l328 -328l-1096 -1096zM-72 1536l72 72l328 -328l-72 -72zM440 -512l584 584l72 -72l-584 -584z" />
<glyph unicode="&#xbf;" horiz-adv-x="1024" d="M-72 0l768 768l-440 440l-256 -256l-72 72l584 584l72 -72l-256 -256l440 -440l256 256l72 -72l-1024 -1024l512 -512l-72 -72zM-72 512l328 328l72 -72l-328 -328zM440 0l584 584l72 -72l-512 -512l512 -512l-72 -72zM696 1280l328 328l72 -72l-328 -328z" />
<glyph unicode="&#xc0;" d="M-72 -512l2120 2120l72 -72l-2120 -2120zM440 -512l328 328l328 -328l-72 -72l-256 256l-256 -256zM952 0l1096 1096l72 -72l-1024 -1024l512 -512l-72 -72zM1464 0l72 72l584 -584l-72 -72zM1720 256l328 328l72 -72l-256 -256l256 -256l-72 -72z" />
<glyph unicode="&#xc1;" horiz-adv-x="512" d="M-72 0l584 584l72 -72l-512 -512l512 -512l-72 -72zM-72 512l256 256l-256 256l72 72l328 -328l-328 -328zM-72 1536l72 72l584 -584l-72 -72z" />
<glyph unicode="&#xc2;" d="M-72 0l768 768l-768 768l72 72l840 -840l-840 -840zM-72 -512l1280 1280l-768 768l72 72l1608 -1608l-584 -584l-72 72l512 512l-696 696l-1280 -1280zM-72 512l256 256l-256 256l72 72l328 -328l-328 -328zM440 -512l840 840l72 -72l-840 -840zM952 -512l584 584l72 -72 l-584 -584zM952 1536l72 72l1096 -1096l-72 -72zM1464 1536l72 72l584 -584l-72 -72z" />
<glyph unicode="&#xc3;" horiz-adv-x="512" d="M-72 0l584 584l72 -72l-512 -512l184 -184l256 256l72 -72l-584 -584l-72 72l256 256zM-72 512l512 512l-184 184l-256 -256l-72 72l584 584l72 -72l-256 -256l256 -256l-584 -584z" />
<glyph unicode="&#xc4;" d="M-72 -512l840 840l584 -584l-328 -328l-72 72l256 256l-440 440l-768 -768zM440 -512l328 328l72 -72l-328 -328zM952 512l1096 1096l72 -72l-1024 -1024l440 -440l512 512l72 -72l-584 -584zM1464 512l584 584l72 -72l-584 -584zM1464 -512l584 584l72 -72l-584 -584z " />
<glyph unicode="&#xc5;" horiz-adv-x="512" d="M-72 0l328 328l328 -328l-72 -72l-256 256l-256 -256zM-72 512l328 328l328 -328l-72 -72l-256 256l-256 -256zM-72 -512l328 328l328 -328l-72 -72l-256 256l-256 -256zM-72 1024l328 328l328 -328l-72 -72l-256 256l-256 -256z" />
<glyph unicode="&#xc6;" d="M-72 0l840 840l512 -512l768 768l72 -72l-768 -768l768 -768l-72 -72l-1280 1280l-768 -768zM-72 512l1096 1096l72 -72l-1096 -1096zM-72 -512l840 840l840 -840l-72 -72l-768 768l-768 -768zM-72 1024l584 584l72 -72l-584 -584zM440 -512l328 328l328 -328l-72 -72 l-256 256l-256 -256zM952 1024l584 584l72 -72l-584 -584zM1208 768l840 840l72 -72l-840 -840zM1720 256l328 328l72 -72l-328 -328z" />
<glyph unicode="&#xc7;" d="M-72 0l72 72l584 -584l-72 -72zM-72 512l768 768l-256 256l72 72l328 -328l-768 -768l952 -952l1024 1024l72 -72l-1096 -1096zM-72 1024l328 328l72 -72l-328 -328zM440 512l1096 1096l72 -72l-1024 -1024l440 -440l696 696l-184 184l-512 -512l-72 72l1096 1096l72 -72 l-512 -512l184 -184l256 256l72 -72l-1096 -1096zM1464 -512l584 584l72 -72l-584 -584z" />
<glyph unicode="&#xc8;" d="M-72 1536l72 72l2120 -2120l-72 -72zM440 1536l72 72l512 -512l512 512l72 -72l-584 -584zM1208 768l840 840l72 -72l-768 -768l768 -768l-72 -72zM1720 768l328 328l72 -72l-256 -256l256 -256l-72 -72z" />
<glyph unicode="&#xcb;" d="M-72 1536l72 72l768 -768l768 768l72 -72l-840 -840zM440 1536l72 72l256 -256l256 256l72 -72l-328 -328zM952 512l1096 1096l72 -72l-1096 -1096zM1208 256l840 840l72 -72l-768 -768l768 -768l-72 -72zM1720 256l328 328l72 -72l-256 -256l256 -256l-72 -72z" />
<glyph unicode="&#xcd;" horiz-adv-x="1024" d="M-72 0l768 768l-256 256l72 72l328 -328l-256 -256l512 -512l-72 -72l-512 512l-440 -440l256 -256l-328 -328l-72 72l256 256zM-72 512l256 256l-256 256l584 584l584 -584l-72 -72l-512 512l-440 -440l256 -256l-328 -328zM440 0l72 72l328 -328l-328 -328l-72 72 l256 256z" />
<glyph unicode="&#xce;" d="M-72 -512l512 512l-512 512l72 72l584 -584l-584 -584zM-72 1024l584 584l72 -72l-512 -512l184 -184l768 768l72 -72l-840 -840zM440 -512l512 512l-512 512l840 840l840 -840l-72 -72l-768 768l-696 -696l1024 -1024l-72 -72l-512 512l-512 -512zM952 512l328 328 l840 -840l-72 -72l-768 768l-184 -184l1024 -1024l-72 -72zM1464 1536l72 72l584 -584l-72 -72z" />
<glyph unicode="&#xcf;" d="M-72 0l72 72l256 -256l256 256l72 -72l-256 -256l256 -256l-72 -72l-256 256l-256 -256l-72 72l256 256zM-72 512l256 256l-256 256l328 328l72 -72l-256 -256l256 -256l-328 -328zM184 256l584 584l72 -72l-256 -256l184 -184l440 440l-440 440l-256 -256l-72 72 l256 256l-256 256l72 72l256 -256l256 256l72 -72l-256 -256l440 -440l256 256l72 -72l-256 -256l440 -440l256 256l72 -72l-584 -584l-72 72l256 256l-440 440l-440 -440l184 -184l256 256l72 -72l-256 -256l256 -256l-72 -72l-256 256l-256 -256l-72 72l256 256l-440 440 l-256 -256zM1208 1280l328 328l584 -584l-328 -328l-72 72l256 256l-440 440l-256 -256zM1464 -512l584 584l72 -72l-584 -584z" />
<glyph unicode="&#xd1;" d="M-72 0l72 72l256 -256l184 184l-512 512l72 72l584 -584l-328 -328zM-72 1024l72 72l512 -512l184 184l-256 256l584 584l512 -512l184 184l-256 256l72 72l328 -328l-328 -328l-512 512l-440 -440l256 -256l-328 -328zM-72 1536l72 72l256 -256l256 256l72 -72 l-328 -328zM440 -512l584 584l72 -72l-584 -584zM696 256l328 328l1096 -1096l-72 -72l-1024 1024l-256 -256zM952 1024l72 72l1096 -1096l-72 -72zM1208 -256l72 72l328 -328l-72 -72zM1720 768l328 328l72 -72l-256 -256l256 -256l-72 -72z" />
<glyph unicode="&#xd2;" horiz-adv-x="1024" d="M-72 0l256 256l-256 256l72 72l328 -328l-328 -328zM-72 1024l72 72l256 -256l440 440l-256 256l72 72l328 -328l-512 -512l768 -768l-72 -72l-256 256l-440 -440l256 -256l-72 -72l-328 328l512 512zM-72 1536l72 72l328 -328l-72 -72zM696 -256l72 72l328 -328l-72 -72 zM696 768l328 328l72 -72l-256 -256l256 -256l-72 -72z" />
<glyph unicode="&#xd3;" horiz-adv-x="1024" d="M-72 0l584 584l256 -256l256 256l72 -72l-328 -328l-256 256l-440 -440l512 -512l-72 -72zM-72 512l1096 1096l72 -72l-1096 -1096zM-72 1024l584 584l72 -72l-584 -584zM440 0l72 72l584 -584l-72 -72zM696 768l328 328l72 -72l-328 -328z" />
<glyph unicode="&#xd4;" d="M-72 0l584 584l584 -584l-584 -584l-72 72l512 512l-440 440l-512 -512zM-72 512l328 328l72 -72l-328 -328zM-72 -512l584 584l72 -72l-584 -584zM-72 1024l584 584l72 -72l-256 -256l1792 -1792l-72 -72l-1792 1792l-256 -256zM696 1280l328 328l72 -72l-328 -328z M952 -512l328 328l328 -328l-72 -72l-256 256l-256 -256zM952 1024l584 584l72 -72l-512 -512l440 -440l512 512l72 -72l-584 -584zM1464 1024l584 584l72 -72l-584 -584zM1720 256l328 328l72 -72l-256 -256l256 -256l-72 -72z" />
<glyph unicode="&#xd5;" horiz-adv-x="512" d="M-72 0l256 256l-256 256l72 72l584 -584l-72 -72l-256 256l-256 -256zM-72 1024l256 256l-256 256l72 72l584 -584l-72 -72l-256 256l-256 -256zM184 -256l72 72l328 -328l-72 -72zM184 768l72 72l328 -328l-72 -72z" />
<glyph unicode="&#xd7;" horiz-adv-x="512" d="M-72 0l72 72l328 -328l-328 -328l-72 72l256 256zM-72 512l256 256l-256 256l72 72l328 -328l-328 -328zM184 256l328 328l72 -72l-256 -256l256 -256l-72 -72zM184 1280l328 328l72 -72l-256 -256l256 -256l-72 -72z" />
<glyph unicode="&#xd8;" horiz-adv-x="512" d="M-72 0l328 328l328 -328l-72 -72l-256 256l-184 -184l512 -512l-72 -72zM-72 1024l584 584l72 -72l-512 -512l512 -512l-72 -72z" />
<glyph unicode="&#xda;" horiz-adv-x="512" d="M-72 0l512 512l-512 512l72 72l584 -584l-512 -512l512 -512l-72 -72zM-72 1536l72 72l584 -584l-72 -72z" />
<glyph unicode="&#xdf;" horiz-adv-x="1024" d="M-72 0l256 256l-256 256l72 72l328 -328l-256 -256l440 -440l512 512l72 -72l-584 -584zM-72 1024l256 256l-256 256l72 72l328 -328l-256 -256l440 -440l512 512l72 -72l-512 -512l256 -256l-328 -328l-72 72l256 256zM440 1024l256 256l-256 256l72 72l328 -328 l-328 -328z" />
<glyph unicode="&#xe0;" d="M-72 0l1024 1024l-512 512l72 72l584 -584l-1096 -1096zM-72 -512l2120 2120l72 -72l-2120 -2120zM-72 512l256 256l-256 256l72 72l328 -328l-328 -328zM-72 1536l72 72l584 -584l-72 -72zM952 1536l72 72l256 -256l256 256l72 -72l-328 -328z" />
<glyph unicode="&#xe3;" horiz-adv-x="512" d="M-72 0l72 72l256 -256l184 184l-512 512l72 72l584 -584l-256 -256l256 -256l-72 -72zM-72 1024l256 256l-256 256l72 72l584 -584l-72 -72l-256 256l-184 -184l512 -512l-72 -72z" />
<glyph unicode="&#xe4;" d="M-72 0l584 584l72 -72l-584 -584zM-72 -512l1024 1024l-440 440l-512 -512l-72 72l584 584l584 -584l-1096 -1096zM-72 1024l584 584l72 -72l-584 -584zM696 1280l328 328l72 -72l-256 -256l440 -440l768 768l72 -72l-840 -840zM1208 1280l328 328l72 -72l-328 -328z" />
<glyph unicode="&#xe5;" horiz-adv-x="512" d="M-72 0l72 72l256 -256l256 256l72 -72l-328 -328zM-72 512l72 72l256 -256l256 256l72 -72l-328 -328zM-72 1024l72 72l256 -256l256 256l72 -72l-328 -328zM-72 1536l72 72l256 -256l256 256l72 -72l-328 -328z" />
<glyph unicode="&#xe6;" d="M-72 0l72 72l584 -584l-72 -72zM-72 512l72 72l1096 -1096l-72 -72zM-72 1024l72 72l584 -584l-72 -72zM-72 1536l72 72l840 -840l-72 -72zM440 1536l72 72l768 -768l768 768l72 -72l-1280 -1280l768 -768l-72 -72l-840 840l512 512zM952 1536l72 72l328 -328l-72 -72z M1208 256l840 840l72 -72l-768 -768l768 -768l-72 -72zM1720 256l328 328l72 -72l-256 -256l256 -256l-72 -72z" />
<glyph unicode="&#xe7;" d="M-72 0l72 72l328 -328l-72 -72zM-72 512l1096 1096l1096 -1096l-72 -72l-1024 1024l-952 -952l768 -768l-328 -328l-72 72l256 256zM-72 1024l584 584l72 -72l-584 -584zM440 512l584 584l1096 -1096l-72 -72l-256 256l-184 -184l512 -512l-72 -72l-1096 1096l72 72 l512 -512l184 184l-696 696l-440 -440l1024 -1024l-72 -72zM1464 1536l72 72l584 -584l-72 -72z" />
<glyph unicode="&#xe8;" d="M-72 0l256 256l-256 256l72 72l328 -328l-328 -328zM-72 -512l768 768l-768 768l72 72l840 -840l-840 -840zM-72 1536l72 72l2120 -2120l-72 -72zM440 -512l584 584l584 -584l-72 -72l-512 512l-512 -512z" />
<glyph unicode="&#xe9;" horiz-adv-x="512" d="M-72 0l72 72l584 -584l-72 -72zM-72 512l72 72l584 -584l-72 -72zM-72 1024l72 72l256 -256l256 256l72 -72l-328 -328zM-72 1536l72 72l256 -256l256 256l72 -72l-328 -328z" />
<glyph unicode="&#xeb;" d="M-72 0l768 768l-768 768l72 72l840 -840l-840 -840zM-72 512l256 256l-256 256l72 72l328 -328l-328 -328zM-72 -512l1096 1096l72 -72l-1096 -1096zM440 -512l840 840l840 -840l-72 -72l-768 768l-768 -768zM952 -512l328 328l328 -328l-72 -72l-256 256l-256 -256z" />
<glyph unicode="&#xee;" horiz-adv-x="512" d="M-72 -512l512 512l-512 512l72 72l584 -584l-584 -584zM-72 1024l584 584l72 -72l-584 -584zM184 768l328 328l72 -72l-256 -256l256 -256l-72 -72z" />
<glyph unicode="&#xf1;" d="M-72 0l72 72l256 -256l184 184l-512 512l72 72l584 -584l-328 -328zM-72 1024l72 72l512 -512l184 184l-256 256l584 584l512 -512l184 184l-256 256l72 72l328 -328l-328 -328l-512 512l-440 -440l256 -256l-328 -328zM-72 1536l72 72l256 -256l256 256l72 -72 l-328 -328zM440 -512l584 584l72 -72l-584 -584zM696 256l328 328l1096 -1096l-72 -72l-1024 1024l-256 -256zM952 1024l72 72l1096 -1096l-72 -72zM1208 -256l72 72l328 -328l-72 -72zM1720 768l328 328l72 -72l-256 -256l256 -256l-72 -72z" />
<glyph unicode="&#xf5;" horiz-adv-x="512" d="M-72 0l584 584l72 -72l-256 -256l256 -256l-72 -72l-256 256l-256 -256zM-72 512l328 328l72 -72l-328 -328zM-72 -512l328 328l72 -72l-328 -328zM-72 1024l584 584l72 -72l-256 -256l256 -256l-72 -72l-256 256l-256 -256z" />
<glyph unicode="&#xf7;" horiz-adv-x="512" d="M-72 0l72 72l328 -328l-328 -328l-72 72l256 256zM-72 512l72 72l584 -584l-72 -72zM-72 1024l72 72l584 -584l-72 -72zM184 1280l328 328l72 -72l-256 -256l256 -256l-72 -72z" />
<glyph unicode="&#xf8;" horiz-adv-x="512" d="M-72 -512l512 512l-512 512l72 72l584 -584l-584 -584zM-72 1024l72 72l256 -256l184 184l-512 512l72 72l584 -584l-328 -328z" />
<glyph unicode="&#xfc;" horiz-adv-x="512" d="M-72 -512l512 512l-512 512l584 584l72 -72l-512 -512l512 -512l-584 -584zM-72 1024l584 584l72 -72l-584 -584z" />
<glyph unicode="&#x131;" d="M-72 512l72 72l512 -512l1536 1536l72 -72l-1608 -1608zM-72 -512l328 328l72 -72l-328 -328zM-72 1024l584 584l72 -72l-584 -584zM184 768l840 840l72 -72l-768 -768l184 -184l1024 1024l72 -72l-1096 -1096zM440 -512l1352 1352l328 -328l-72 -72l-256 256 l-1280 -1280zM952 -512l840 840l328 -328l-584 -584l-72 72l512 512l-184 184l-768 -768z" />
<glyph unicode="&#x152;" d="M-72 0l768 768l-440 440l-256 -256l-72 72l584 584l72 -72l-256 -256l512 -512l-840 -840zM-72 -512l1096 1096l768 -768l256 256l72 -72l-584 -584l-72 72l256 256l-696 696l-1024 -1024zM-72 512l328 328l72 -72l-328 -328zM440 -512l584 584l72 -72l-584 -584z M696 1280l328 328l72 -72l-256 -256l440 -440l768 768l72 -72l-768 -768l440 -440l256 256l72 -72l-328 -328zM952 -512l328 328l72 -72l-328 -328zM1208 1280l328 328l72 -72l-328 -328zM1720 768l328 328l72 -72l-328 -328z" />
<glyph unicode="&#x153;" d="M-72 0l72 72l256 -256l440 440l-768 768l72 72l840 -840l-512 -512l256 -256l-72 -72zM-72 512l72 72l328 -328l-72 -72zM-72 1536l72 72l1024 -1024l696 696l-256 256l72 72l584 -584l-72 -72l-256 256l-768 -768zM440 1536l72 72l584 -584l-72 -72zM696 -256l1096 1096 l328 -328l-72 -72l-256 256l-440 -440l768 -768l-72 -72l-768 768l-440 -440l256 -256l-72 -72zM952 1536l72 72l328 -328l-72 -72zM1208 -256l72 72l328 -328l-72 -72zM1720 256l72 72l328 -328l-72 -72z" />
<glyph unicode="&#x192;" d="M-72 0l256 256l-256 256l72 72l328 -328l-256 -256l256 -256l-72 -72zM-72 1024l256 256l-256 256l72 72l256 -256l256 256l72 -72l-256 -256l256 -256l-72 -72l-256 256l-256 -256zM184 768l72 72l256 -256l440 440l-256 256l72 72l256 -256l256 256l72 -72l-256 -256 l256 -256l-72 -72l-256 256l-184 -184l440 -440l440 440l-256 256l72 72l584 -584l-72 -72l-256 256l-440 -440l256 -256l-72 -72l-256 256l-440 -440l256 -256l-72 -72l-256 256l-256 -256l-72 72l256 256l-256 256l72 72l256 -256l440 440l-440 440l-184 -184l256 -256 l-72 -72zM1208 -256l72 72l256 -256l440 440l-256 256l72 72l328 -328l-584 -584zM1464 1536l72 72l584 -584l-72 -72z" />
<glyph unicode="&#x2c6;" horiz-adv-x="512" d="M-72 0l256 256l-256 256l72 72l328 -328l-328 -328zM-72 -512l584 584l72 -72l-584 -584zM-72 1024l584 584l72 -72l-512 -512l512 -512l-72 -72z" />
<glyph unicode="&#x2c7;" horiz-adv-x="1024" d="M-72 0l72 72l584 -584l-72 -72zM-72 512l72 72l1096 -1096l-72 -72zM-72 1024l584 584l72 -72l-584 -584zM184 768l840 840l72 -72l-840 -840zM440 512l72 72l584 -584l-72 -72zM696 768l328 328l72 -72l-256 -256l256 -256l-72 -72z" />
<glyph unicode="&#x2d8;" horiz-adv-x="512" d="M-72 0l512 512l-512 512l584 584l72 -72l-512 -512l512 -512l-584 -584zM-72 -512l584 584l72 -72l-584 -584z" />
<glyph unicode="&#x2d9;" horiz-adv-x="1024" d="M-72 0l72 72l584 -584l-72 -72zM-72 512l72 72l1096 -1096l-72 -72zM-72 1024l584 584l72 -72l-512 -512l440 -440l256 256l328 -328l-72 -72l-256 256l-256 -256zM440 1024l584 584l72 -72l-584 -584zM696 256l72 72l328 -328l-72 -72z" />
<glyph unicode="&#x2da;" d="M-72 0l1608 1608l72 -72l-256 -256l768 -768l-72 -72l-768 768l-1280 -1280zM-72 512l584 584l72 -72l-584 -584zM-72 -512l584 584l72 -72l-584 -584zM-72 1024l584 584l72 -72l-584 -584zM440 -512l1024 1024l-184 184l-512 -512l-72 72l584 584l840 -840l-72 -72 l-512 512l-1024 -1024zM696 1280l328 328l72 -72l-328 -328zM952 -512l584 584l584 -584l-72 -72l-512 512l-512 -512zM1720 1280l328 328l72 -72l-256 -256l256 -256l-72 -72z" />
<glyph unicode="&#x2db;" d="M-72 0l768 770l-184 197l-510 -527l-74 70l584 604l258 -272l182 182l-256 256l328 328l72 -72l-256 -256l184 -184l512 512l72 -72l-1608 -1608zM-72 1024l256 256l-256 256l72 72l328 -328l-328 -328zM184 -256l1864 1864l72 -72l-768 -768l184 -184l512 512l72 -72 l-584 -584l-256 256l-184 -184l256 -256l-840 -840zM328 -256l184 -184l696 696l-184 184zM952 -512l584 584l584 -584l-72 -72l-256 256l-256 -256l-72 72l256 256l-184 184l-512 -512zM1720 256l328 328l72 -72l-256 -256l256 -256l-72 -72z" />
<glyph unicode="&#x2dc;" d="M-72 0l256 256l-256 256l72 72l328 -328l-328 -328zM-72 1024l72 72l1096 -1096l-72 -72zM-72 1536l72 72l1024 -1024l256 256l72 -72l-328 -328zM184 -256l328 328l512 -512l440 440l-256 256l328 328l584 -584l-72 -72l-512 512l-184 -184l256 -256l-584 -584l-512 512 l-184 -184l256 -256l-72 -72zM440 1536l72 72l328 -328l-72 -72zM952 1024l584 584l72 -72l-584 -584zM1464 -512l328 328l328 -328l-72 -72l-256 256l-256 -256zM1464 1024l328 328l328 -328l-72 -72l-256 256l-184 -184l512 -512l-72 -72z" />
<glyph unicode="&#x2dd;" d="M-72 0l768 768l-256 256l584 584l72 -72l-512 -512l256 -256l-840 -840zM-72 -512l1280 1280l-256 256l584 584l72 -72l-512 -512l440 -440l512 512l72 -72l-584 -584l-256 256l-1280 -1280zM-72 512l328 328l72 -72l-328 -328zM-72 1024l584 584l72 -72l-584 -584z M440 -512l840 840l256 -256l512 512l72 -72l-584 -584l-256 256l-768 -768zM952 -512l328 328l72 -72l-328 -328zM1464 -512l584 584l72 -72l-584 -584zM1464 1024l584 584l72 -72l-584 -584z" />
<glyph unicode="&#x3a9;" d="M-72 0l328 328l72 -72l-328 -328zM-72 -512l768 768l-440 440l-256 -256l-72 72l256 256l-256 256l584 584l72 -72l-512 -512l184 -184l512 512l72 -72l-512 -512l184 -184l256 256l72 -72l-256 -256l440 -440l256 256l72 -72l-256 -256l184 -184l512 512l72 -72 l-512 -512l184 -184l512 512l72 -72l-584 -584l-256 256l-256 -256l-72 72l256 256l-440 440l-768 -768zM440 -512l328 328l72 -72l-328 -328zM952 512l768 768l-184 184l-512 -512l-72 72l584 584l584 -584l-584 -584l-72 72l512 512l-184 184l-768 -768z" />
<glyph unicode="&#x3c0;" d="M-72 0l512 512l-512 512l72 72l584 -584l-584 -584zM-72 -512l840 840l840 -840l-72 -72l-768 768l-768 -768zM-72 1536l72 72l584 -584l-72 -72zM440 -512l328 328l328 -328l-72 -72l-256 256l-256 -256zM440 1536l72 72l768 -768l768 768l72 -72l-768 -768l768 -768 l-72 -72zM696 768l72 72l1352 -1352l-72 -72zM952 1536l72 72l256 -256l256 256l72 -72l-328 -328zM1720 768l328 328l72 -72l-256 -256l256 -256l-72 -72z" />
<glyph unicode="&#x2000;" horiz-adv-x="1024" />
<glyph unicode="&#x2001;" />
<glyph unicode="&#x2002;" horiz-adv-x="1024" />
<glyph unicode="&#x2003;" />
<glyph unicode="&#x2013;" horiz-adv-x="512" d="M-72 512l256 256l-256 256l584 584l72 -72l-512 -512l256 -256l-328 -328zM-72 -512l512 512l-256 256l328 328l72 -72l-256 -256l256 -256l-584 -584z" />
<glyph unicode="&#x2014;" horiz-adv-x="512" d="M-72 0l256 256l-256 256l72 72l328 -328l-256 -256l512 -512l-72 -72zM-72 1536l72 72l584 -584l-256 -256l256 -256l-72 -72l-328 328l256 256z" />
<glyph unicode="&#x2018;" d="M-72 -512l512 512l-512 512l72 72l512 -512l512 512l1096 -1096l-72 -72l-1024 1024l-440 -440l512 -512l-72 -72l-512 512l-512 -512zM-72 1024l72 72l584 -584l-72 -72zM-72 1536l72 72l840 -840l-72 -72zM440 1536l72 72l768 -768l440 440l-256 256l72 72l256 -256 l256 256l72 -72l-256 -256l256 -256l-72 -72l-256 256l-440 -440l768 -768l-72 -72zM952 0l72 72l584 -584l-72 -72zM952 1536l72 72l328 -328l-72 -72zM1720 768l72 72l328 -328l-72 -72z" />
<glyph unicode="&#x2019;" d="M-72 0l768 768l-768 768l72 72l768 -768l768 768l72 -72l-1608 -1608zM-72 -512l1096 1096l1096 -1096l-72 -72l-1024 1024l-1024 -1024zM-72 512l256 256l-256 256l72 72l328 -328l-328 -328zM440 -512l584 584l584 -584l-72 -72l-512 512l-512 -512zM440 1536l72 72 l256 -256l256 256l72 -72l-328 -328zM1208 768l840 840l72 -72l-840 -840zM1464 512l584 584l72 -72l-512 -512l512 -512l-72 -72z" />
<glyph unicode="&#x201a;" horiz-adv-x="1024" d="M-72 0l256 256l-256 256l72 72l328 -328l-328 -328zM-72 -512l584 584l328 -328l-328 -328l-72 72l256 256l-184 184l-512 -512zM-72 1024l72 72l1096 -1096l-72 -72zM184 1280l328 328l72 -72l-256 -256l184 -184l512 512l72 -72l-584 -584zM696 768l328 328l72 -72 l-256 -256l256 -256l-72 -72z" />
<glyph unicode="&#x201c;" d="M-72 0l584 584l72 -72l-256 -256l184 -184l440 440l-768 768l72 72l1864 -1864l-72 -72l-1024 1024l-440 -440l184 -184l256 256l72 -72l-584 -584l-72 72l256 256l-184 184l-512 -512l-72 72l512 512l-184 184l-256 -256zM-72 1024l72 72l328 -328l-72 -72zM440 1536 l72 72l328 -328l-72 -72zM952 1024l584 584l72 -72l-256 -256l184 -184l512 512l72 -72l-512 -512l184 -184l256 256l72 -72l-584 -584l-72 72l256 256l-184 184l-256 -256l-72 72l256 256l-184 184l-256 -256zM1208 -256l72 72l328 -328l-72 -72zM1720 256l72 72l328 -328 l-72 -72z" />
<glyph unicode="&#x201d;" d="M-72 0l512 512l-184 184l-256 -256l-72 72l584 584l256 -256l256 256l72 -72l-328 -328l-256 256l-184 -184l256 -256l-584 -584zM-72 1024l584 584l328 -328l-72 -72l-256 256l-512 -512zM184 -256l328 328l256 -256l256 256l328 -328l-328 -328l-72 72l256 256 l-184 184l-256 -256l-256 256l-184 -184l256 -256l-72 -72zM696 256l328 328l512 -512l256 256l328 -328l-72 -72l-256 256l-184 -184l512 -512l-72 -72l-1024 1024l-256 -256zM952 1536l72 72l256 -256l256 256l256 -256l256 256l72 -72l-328 -328l-256 256l-184 -184 l256 -256l-256 -256l184 -184l256 256l328 -328l-72 -72l-256 256l-256 -256l-328 328l256 256z" />
<glyph unicode="&#x201e;" d="M-72 0l72 72l512 -512l256 256l328 -328l-72 -72l-256 256l-256 -256zM-72 512l72 72l512 -512l184 184l-768 768l72 72l1280 -1280l256 256l72 -72l-328 -328l-512 512l-256 -256zM-72 1536l72 72l512 -512l256 256l512 -512l256 256l72 -72l-328 -328l-512 512 l-256 -256zM696 768l72 72l512 -512l256 256l256 -256l256 256l72 -72l-328 -328l-256 256l-256 -256zM952 1536l72 72l256 -256l256 256l256 -256l256 256l72 -72l-328 -328l-256 256l-256 -256zM1720 -256l328 328l72 -72l-328 -328zM1720 768l328 328l72 -72l-328 -328z " />
<glyph unicode="&#x2020;" horiz-adv-x="1024" d="M-72 0l840 840l72 -72l-768 -768l512 -512l-72 -72zM-72 512l256 256l-256 256l72 72l328 -328l-328 -328zM-72 1536l72 72l584 -584l-72 -72zM440 0l584 584l72 -72l-512 -512l512 -512l-72 -72zM440 1536l72 72l584 -584l-72 -72z" />
<glyph unicode="&#x2021;" d="M-72 0l328 328l72 -72l-328 -328zM-72 512l256 256l-256 256l72 72l768 -768l256 256l72 -72l-256 -256l184 -184l768 768l72 -72l-768 -768l256 -256l-72 -72l-256 256l-256 -256l-72 72l256 256l-184 184l-256 -256l-72 72l256 256l-440 440l-256 -256zM184 -256l72 72 l328 -328l-72 -72zM184 1280l72 72l256 -256l184 184l-256 256l72 72l256 -256l256 256l72 -72l-256 -256l184 -184l512 512l584 -584l-72 -72l-512 512l-184 -184l256 -256l-72 -72l-256 256l-184 -184l256 -256l-72 -72l-512 512l-184 -184l256 -256l-72 -72zM1464 0 l72 72l256 -256l256 256l72 -72l-256 -256l256 -256l-72 -72l-256 256l-256 -256l-72 72l256 256zM1720 256l328 328l72 -72l-328 -328z" />
<glyph unicode="&#x2022;" horiz-adv-x="1024" d="M-72 0l328 328l256 -256l512 512l72 -72l-584 -584l-256 256l-256 -256zM-72 512l584 584l256 -256l256 256l72 -72l-328 -328l-256 256l-512 -512zM-72 -512l328 328l72 -72l-328 -328zM-72 1024l584 584l72 -72l-584 -584zM440 -512l584 584l72 -72l-584 -584z M696 1280l328 328l72 -72l-328 -328z" />
<glyph unicode="&#x2026;" horiz-adv-x="1024" d="M-72 0l1024 1024l-440 440l-512 -512l-72 72l584 584l584 -584l-1096 -1096zM-72 512l584 584l72 -72l-584 -584zM-72 -512l1096 1096l72 -72l-512 -512l512 -512l-72 -72l-512 512l-512 -512z" />
<glyph unicode="&#x2030;" horiz-adv-x="1024" d="M-72 0l768 768l-440 440l-256 -256l-72 72l328 328l256 -256l184 184l-256 256l72 72l584 -584l-72 -72l-256 256l-184 -184l256 -256l-840 -840zM-72 512l328 328l72 -72l-328 -328zM-72 -512l328 328l328 -328l-72 -72l-256 256l-256 -256zM440 0l72 72l584 -584 l-72 -72zM696 256l328 328l72 -72l-256 -256l256 -256l-72 -72z" />
<glyph unicode="&#x2039;" d="M-72 0l72 72l328 -328l-328 -328l-72 72l256 256zM-72 512l72 72l1024 -1024l768 768l328 -328l-72 -72l-256 256l-768 -768zM-72 1024l256 256l-256 256l72 72l328 -328l-256 -256l256 -256l-72 -72zM440 512l256 256l-256 256l256 256l-256 256l72 72l328 -328 l-256 -256l256 -256l-256 -256l440 -440l696 696l-256 256l256 256l-256 256l72 72l328 -328l-256 -256l512 -512l-72 -72l-256 256l-768 -768zM952 512l256 256l-256 256l256 256l-256 256l72 72l328 -328l-256 -256l256 -256l-328 -328zM1464 -512l328 328l72 -72 l-328 -328z" />
<glyph unicode="&#x203a;" d="M-72 0l328 328l256 -256l256 256l256 -256l440 440l-696 696l-256 -256l-256 256l-256 -256l-72 72l328 328l256 -256l512 512l72 -72l-256 -256l768 -768l-584 -584l-256 256l-256 -256l-256 256l-256 -256zM-72 512l328 328l256 -256l256 256l328 -328l-72 -72 l-256 256l-256 -256l-256 256l-256 -256zM-72 -512l328 328l256 -256l256 256l72 -72l-328 -328l-256 256l-256 -256zM952 -512l1024 1024l-768 768l328 328l72 -72l-256 -256l768 -768l-1096 -1096zM1464 -512l328 328l328 -328l-72 -72l-256 256l-256 -256zM1720 1280 l72 72l328 -328l-72 -72z" />
<glyph unicode="&#x2044;" horiz-adv-x="512" d="M-72 0l328 328l328 -328l-72 -72l-256 256l-256 -256zM-72 -512l328 328l328 -328l-72 -72l-256 256l-256 -256zM-72 1024l72 72l256 -256l256 256l72 -72l-328 -328zM-72 1536l72 72l256 -256l256 256l72 -72l-328 -328z" />
<glyph unicode="&#x20ac;" d="M-72 0l512 512l-512 512l72 72l512 -512l256 256l256 -256l768 768l328 -328l-72 -72l-256 256l-768 -768l-256 256l-768 -768zM-72 -512l840 840l256 -256l768 768l72 -72l-840 -840l-256 256l-768 -768zM184 1280l328 328l72 -72l-256 -256l184 -184l256 256l256 -256 l512 512l72 -72l-584 -584l-256 256l-256 -256zM440 -512l328 328l256 -256l1024 1024l72 -72l-1096 -1096l-256 256l-256 -256zM1464 -512l584 584l72 -72l-584 -584z" />
<glyph unicode="&#x2122;" d="M-72 -512l512 512l-512 512l72 72l584 -584l-584 -584zM-72 1024l72 72l512 -512l512 512l72 -72l-584 -584zM184 1280l328 328l72 -72l-328 -328zM440 -512l328 328l328 -328l-72 -72l-256 256l-256 -256zM440 1024l584 584l1096 -1096l-72 -72l-256 256l-512 -512 l-72 72l512 512l-696 696l-512 -512zM696 256l584 584l72 -72l-512 -512l440 -440l512 512l72 -72l-512 -512l184 -184l512 512l72 -72l-584 -584zM1464 1536l72 72l584 -584l-72 -72z" />
<glyph unicode="&#x2202;" d="M-72 0l512 512l-512 512l72 72l512 -512l512 512l840 -840l-840 -840l-72 72l768 768l-696 696l-1024 -1024zM-72 -512l1096 1096l328 -328l-840 -840l-72 72l768 768l-184 184l-1024 -1024zM-72 1536l72 72l512 -512l512 512l72 -72l-584 -584zM1208 1280l328 328 l584 -584l-72 -72l-512 512l-184 -184l768 -768l-72 -72zM1464 -512l584 584l72 -72l-584 -584z" />
<glyph unicode="&#x2206;" d="M-72 0l72 72l256 -256l1792 1792l72 -72l-1792 -1792l256 -256l-72 -72zM-72 512l72 72l328 -328l-72 -72zM-72 1024l72 72l512 -512l440 440l-512 512l72 72l584 -584l-584 -584zM-72 1536l72 72l584 -584l-72 -72zM696 -256l72 72l328 -328l-72 -72zM952 0l584 584 l584 -584l-72 -72l-512 512l-440 -440l512 -512l-72 -72zM952 1536l72 72l256 -256l256 256l72 -72l-328 -328zM1464 0l72 72l584 -584l-72 -72zM1720 768l328 328l72 -72l-256 -256l256 -256l-72 -72z" />
<glyph unicode="&#x220f;" d="M-72 0l768 768l-768 768l72 72l840 -840l-840 -840zM-72 512l256 256l-256 256l72 72l328 -328l-328 -328zM-72 -512l1352 1352l72 -72l-1352 -1352zM440 -512l1608 1608l72 -72l-768 -768l768 -768l-72 -72l-768 768l-768 -768zM440 1536l72 72l512 -512l512 512l72 -72 l-584 -584zM952 -512l328 328l328 -328l-72 -72l-256 256l-256 -256zM1464 1024l584 584l72 -72l-584 -584zM1720 256l328 328l72 -72l-256 -256l256 -256l-72 -72z" />
<glyph unicode="&#x2211;" d="M-72 512l256 256l-256 256l584 584l72 -72l-512 -512l256 -256l-328 -328zM184 256l512 512l-256 256l584 584l72 -72l-512 -512l184 -184l768 768l72 -72l-1280 -1280l256 -256l-72 -72zM184 -256l72 72l328 -328l-72 -72zM696 -256l256 256l-256 256l584 584l72 -72 l-512 -512l256 -256l-256 -256l256 -256l-72 -72zM1208 256l512 512l-256 256l584 584l72 -72l-512 -512l256 -256l-512 -512l256 -256l-72 -72zM1208 -256l72 72l328 -328l-72 -72zM1720 -256l256 256l-256 256l328 328l72 -72l-256 -256l256 -256l-256 -256l256 -256 l-72 -72z" />
<glyph unicode="&#x221a;" d="M-72 0l72 72l512 -512l1024 1024l72 -72l-512 -512l184 -184l256 256l584 -584l-72 -72l-512 512l-512 -512l-72 72l256 256l-184 184l-512 -512zM-72 512l72 72l328 -328l-72 -72zM-72 1024l72 72l512 -512l1024 1024l328 -328l-72 -72l-256 256l-440 -440l184 -184 l256 256l584 -584l-72 -72l-512 512l-1024 -1024l-72 72l768 768l-184 184l-512 -512zM-72 1536l72 72l512 -512l256 256l72 -72l-328 -328zM1720 256l72 72l328 -328l-72 -72z" />
<glyph unicode="&#x221e;" d="M-72 0l584 584l72 -72l-584 -584zM-72 -512l1024 1024l-440 440l-512 -512l-72 72l512 512l-256 256l328 328l72 -72l-256 -256l440 -440l768 768l72 -72l-768 -768l440 -440l768 768l72 -72l-768 -768l440 -440l256 256l72 -72l-328 -328l-256 256l-512 -512l-72 72 l512 512l-440 440l-1024 -1024zM440 -512l584 584l72 -72l-584 -584zM696 1280l328 328l72 -72l-328 -328zM1208 768l840 840l72 -72l-840 -840zM1720 256l328 328l72 -72l-328 -328z" />
<glyph unicode="&#x222b;" d="M-72 0l72 72l584 -584l-72 -72zM-72 512l584 584l1608 -1608l-72 -72l-1536 1536l-512 -512zM-72 1536l72 72l328 -328l-72 -72zM184 256l328 328l1096 -1096l-72 -72l-1024 1024l-184 -184l768 -768l-72 -72zM440 1536l72 72l1280 -1280l256 256l72 -72l-328 -328z M952 1536l72 72l768 -768l184 184l-512 512l72 72l584 -584l-328 -328z" />
<glyph unicode="&#x2248;" d="M-80 0l72 72l256 -256l184 184l-512 512l72 72l583 -584l-583 -584l-72 72l256 256zM-80 1024l328 328l1863 -1864l-71 -72l-768 768l-185 -184l512 -512l-71 -72l-584 584l256 256l-184 184l-256 -256zM63 1024l697 -696l184 184l-696 696zM432 -512l328 328l327 -328 l-71 -72l-256 256l-256 -256zM432 1536l72 72l770 -768l196 184l-526 510l72 74l602 -584l-272 -258l182 -182l256 256l327 -328l-71 -72l-256 256l-185 -184l512 -512l-71 -72zM1456 1536l72 72l256 -256l256 256l71 -72l-327 -328z" />
<glyph unicode="&#x2260;" horiz-adv-x="512" d="M-72 0l256 256l-256 256l72 72l584 -584l-72 -72l-256 256l-256 -256zM-72 -512l328 328l328 -328l-72 -72l-256 256l-256 -256zM-72 1024l72 72l256 -256l256 256l72 -72l-256 -256l256 -256l-72 -72zM-72 1536l72 72l256 -256l256 256l72 -72l-328 -328z" />
<glyph unicode="&#x2264;" horiz-adv-x="512" d="M-72 512l512 512l-256 256l328 328l72 -72l-256 -256l256 -256l-512 -512l256 -256l-72 -72zM184 -256l328 328l72 -72l-256 -256l256 -256l-72 -72z" />
<glyph unicode="&#x2265;" horiz-adv-x="512" d="M-72 0l512 512l-256 256l72 72l328 -328l-512 -512l256 -256l-328 -328l-72 72l256 256zM-72 1024l256 256l-256 256l72 72l328 -328l-328 -328z" />
<glyph unicode="&#x25ca;" d="M-72 -512l512 512l-256 256l72 72l328 -328l-584 -584zM-72 1024l328 328l72 -72l-256 -256l440 -440l184 184l-256 256l584 584l72 -72l-512 -512l1024 -1024l-72 -72l-768 768l-184 -184l512 -512l-584 -584l-72 72l512 512zM952 -512l328 328l72 -72l-328 -328z M952 1024l72 72l512 -512l184 184l-256 256l584 584l72 -72l-512 -512l512 -512l-72 -72l-256 256l-184 -184l512 -512l-584 -584l-72 72l512 512zM1208 1280l328 328l72 -72l-328 -328z" />
<glyph unicode="&#x25fc;" horiz-adv-x="1607" d="M0 0v1608h1608v-1608h-1608z" />
<glyph unicode="&#xf8ff;" d="M-72 0l72 72l584 -584l-72 -72zM-72 512l72 72l328 -328l-72 -72zM-72 1024l72 72l256 -256l768 768l72 -72l-768 -768l1280 -1280l-72 -72zM-72 1536l72 72l256 -256l256 256l72 -72l-328 -328zM440 0l72 72l584 -584l-72 -72zM696 768l840 840l72 -72l-512 -512 l1024 -1024l-72 -72l-1024 1024l-184 -184l512 -512l-72 -72zM1464 0l72 72l584 -584l-72 -72zM1464 1024l584 584l72 -72l-512 -512l512 -512l-72 -72z" />
<glyph unicode="&#xfb01;" d="M-72 0l72 72l584 -584l-72 -72zM-72 512l72 72l512 -512l1536 1536l72 -72l-256 -256l256 -256l-72 -72l-256 256l-1208 -1208l512 -512l-72 -72zM-72 1024l72 72l512 -512l696 696l-256 256l72 72l328 -328l-840 -840zM-72 1536l72 72l512 -512l184 184l-256 256l72 72 l328 -328l-328 -328zM952 0l840 840l328 -328l-72 -72l-256 256l-696 -696l512 -512l-72 -72zM1464 0l328 328l328 -328l-72 -72l-256 256l-184 -184l512 -512l-72 -72z" />
<glyph unicode="&#xfb02;" d="M-72 0l1608 1608l72 -72l-768 -768l184 -184l1024 1024l72 -72l-1024 -1024l440 -440l512 512l72 -72l-512 -512l256 -256l-328 -328l-72 72l256 256l-440 440l-768 -768l-72 72l768 768l-440 440l-768 -768zM-72 512l512 512l-184 184l-256 -256l-72 72l328 328 l256 -256l512 512l72 -72l-1096 -1096zM-72 -512l840 840l72 -72l-840 -840zM952 -512l328 328l72 -72l-328 -328zM1464 512l584 584l72 -72l-584 -584z" />
<glyph />
<glyph />
<glyph />
<glyph />
<glyph />
<glyph />
<glyph />
<glyph />
<glyph />
<glyph />
<glyph />
<glyph />
<glyph />
<glyph />
<glyph />
<glyph />
<glyph />
<glyph />
<glyph />
<glyph />
<glyph />
<glyph />
<glyph />
<glyph />
<glyph />
<glyph />
<glyph />
<glyph />
<glyph />
<glyph />
<glyph />
<glyph />
<glyph />
<glyph />
<glyph />
<glyph />
<glyph />
<glyph />
<glyph />
<glyph />
<glyph />
<glyph />
<glyph />
<glyph />
<glyph />
<glyph />
<glyph />
<glyph />
<glyph />
<glyph />
<glyph />
<glyph />
<glyph />
<glyph />
<glyph />
<glyph />
<glyph />
<glyph />
<glyph />
<glyph />
<glyph />
<glyph />
<glyph />
<glyph />
<glyph />
<glyph />
<glyph />
<glyph />
<glyph />
<glyph />
<glyph />
<glyph />
<glyph />
<glyph />
<glyph />
<glyph />
<glyph />
<glyph />
<glyph />
<glyph />
<glyph />
<glyph />
<glyph />
<glyph />
<glyph />
<glyph />
<glyph />
<glyph />
<glyph />
<glyph />
<glyph />
<glyph />
<glyph />
<glyph />
<glyph />
<glyph />
<glyph />
<glyph />
<glyph />
<glyph />
<glyph />
<glyph />
<glyph />
<glyph />
<glyph />
<glyph />
<glyph />
<glyph />
<glyph />
<glyph />
<glyph />
<glyph />
<glyph />
<glyph />
<glyph />
<glyph />
<glyph />
<glyph />
<glyph />
<glyph />
<glyph />
<glyph />
<glyph />
<glyph />
<glyph />
<glyph />
<glyph />
<glyph />
<glyph />
<glyph />
<glyph />
<glyph />
<glyph />
<glyph />
<glyph />
<glyph />
<glyph />
<glyph />
<glyph />
<glyph />
<glyph />
<glyph />
<glyph />
<glyph />
<glyph />
<glyph />
<glyph />
<glyph />
<glyph />
<glyph />
<glyph />
<glyph />
<glyph />
<glyph />
<glyph />
<glyph />
<glyph />
<glyph />
<glyph />
<glyph />
<glyph />
<glyph />
<glyph />
<glyph />
<glyph />
<glyph />
<glyph />
<glyph />
<glyph />
<glyph />
<glyph />
<glyph />
<glyph />
<glyph />
<glyph />
<glyph />
<glyph />
<glyph />
<glyph />
<glyph />
<glyph />
<glyph />
<glyph />
<glyph />
<glyph />
<glyph />
<glyph />
<glyph />
<glyph />
<glyph />
<glyph />
<glyph />
<glyph />
<glyph />
<glyph />
<glyph />
<glyph />
<glyph />
<glyph />
<glyph />
<glyph />
<glyph />
<glyph />
<glyph />
<glyph />
<glyph />
<glyph />
<glyph />
<glyph />
<glyph />
<glyph />
<glyph />
<glyph />
<glyph />
<glyph />
<glyph />
<glyph />
<glyph horiz-adv-x="1024" />
<glyph />
<glyph />
<glyph />
<glyph />
<glyph />
<glyph />
<glyph />
<glyph />
<glyph />
<glyph />
<glyph />
<glyph />
<glyph />
<glyph />
<glyph />
<glyph />
<glyph />
<glyph />
<glyph />
<glyph />
<glyph />
<glyph />
<glyph />
<glyph />
<glyph />
<glyph />
<glyph />
<glyph />
<glyph />
<glyph />
<glyph />
<glyph />
<glyph />
<glyph />
<glyph />
<glyph />
<glyph />
<glyph />
<glyph />
<glyph />
<glyph />
<glyph />
<glyph />
<glyph />
<glyph />
<glyph />
<glyph />
<glyph />
<glyph />
<glyph />
<glyph />
<glyph />
<glyph />
<glyph />
<glyph />
<glyph />
<glyph />
<glyph />
<glyph />
<glyph />
<glyph />
<glyph />
<glyph />
<glyph />
<glyph />
<glyph />
<glyph />
<glyph />
<glyph />
<glyph />
<glyph />
<glyph />
<glyph />
<glyph />
<glyph />
<glyph />
<glyph />
<glyph />
<glyph />
<glyph />
<glyph />
<glyph />
<glyph />
<glyph />
<glyph />
<glyph />
<glyph />
</font>
</defs>
</svg>
