<svg id="visual" viewBox="0 0 1266 521" width="1266" height="521" xmlns="http://www.w3.org/2000/svg" xmlns:xlink="http://www.w3.org/1999/xlink" version="1.1"><rect x="0" y="0" width="1266" height="521" fill="#000000"></rect><g fill="none" stroke="#2b2b2b" stroke-width="4"><path d="M35.4 20.4L35.4 91.1L-35.4 91.1L-35.4 20.4L-96.6 -14.9L-61.2 -76.2L0 -40.8L61.2 -76.2L96.6 -14.9Z" transform="translate(940 272)"></path><path d="M15.4 8.9L15.4 39.6L-15.4 39.6L-15.4 8.9L-42 -6.5L-26.6 -33.1L0 -17.8L26.6 -33.1L42 -6.5Z" transform="translate(109 14)"></path><path d="M22.7 13.1L22.7 58.4L-22.7 58.4L-22.7 13.1L-61.9 -9.6L-39.3 -48.8L0 -26.2L39.3 -48.8L61.9 -9.6Z" transform="translate(431 364)"></path><path d="M30.5 17.6L30.5 78.6L-30.5 78.6L-30.5 17.6L-83.3 -12.9L-52.8 -65.7L0 -35.2L52.8 -65.7L83.3 -12.9Z" transform="translate(21 409)"></path><path d="M20 11.5L20 51.5L-20 51.5L-20 11.5L-54.6 -8.4L-34.6 -43L0 -23.1L34.6 -43L54.6 -8.4Z" transform="translate(428 76)"></path></g></svg>