<svg id="visual" viewBox="0 0 900 1200" width="900" height="1200" xmlns="http://www.w3.org/2000/svg" xmlns:xlink="http://www.w3.org/1999/xlink" version="1.1"><rect x="0" y="0" width="900" height="1200" fill="#000000"></rect><g fill="none" stroke="#363636" stroke-width="4"><path d="M49.7 28.7L49.7 128L-49.7 128L-49.7 28.7L-135.7 -21L-86 -107L0 -57.3L86 -107L135.7 -21Z" transform="translate(799 1126)"></path><path d="M28.1 16.2L28.1 72.3L-28.1 72.3L-28.1 16.2L-76.7 -11.9L-48.6 -60.5L0 -32.4L48.6 -60.5L76.7 -11.9Z" transform="translate(260 495)"></path><path d="M37.2 21.5L37.2 96L-37.2 96L-37.2 21.5L-101.7 -15.7L-64.5 -80.2L0 -43L64.5 -80.2L101.7 -15.7Z" transform="translate(58 1043)"></path><path d="M32.1 18.5L32.1 82.8L-32.1 82.8L-32.1 18.5L-87.7 -13.6L-55.6 -69.2L0 -37.1L55.6 -69.2L87.7 -13.6Z" transform="translate(33 45)"></path><path d="M42.1 24.3L42.1 108.5L-42.1 108.5L-42.1 24.3L-115 -17.8L-72.9 -90.7L0 -48.6L72.9 -90.7L115 -17.8Z" transform="translate(607 726)"></path></g></svg>