<svg id="visual" viewBox="0 0 900 600" width="900" height="600" xmlns="http://www.w3.org/2000/svg" xmlns:xlink="http://www.w3.org/1999/xlink" version="1.1"><g stroke-width="1" stroke-linejoin="bevel"><path d="M497 311L515.5 276L492 247Z" fill="#494a4b" stroke="#494a4b"></path><path d="M497 311L626 274L515.5 276Z" fill="#828384" stroke="#828384"></path><path d="M515.5 276L558.5 151L492 247Z" fill="#000000" stroke="#000000"></path><path d="M631 221L558.5 151L515.5 276Z" fill="#969798" stroke="#969798"></path><path d="M427 46L353.5 196L492 247Z" fill="#161718" stroke="#161718"></path><path d="M492 247L353.5 196L497 311Z" fill="#969798" stroke="#969798"></path><path d="M626 274L631 221L515.5 276Z" fill="#969798" stroke="#969798"></path><path d="M294.5 243L411 432L497 311Z" fill="#262728" stroke="#262728"></path><path d="M497 311L571.5 451L626 274Z" fill="#828384" stroke="#828384"></path><path d="M631 221L611.5 171L558.5 151Z" fill="#161718" stroke="#161718"></path><path d="M353.5 196L294.5 243L497 311Z" fill="#494a4b" stroke="#494a4b"></path><path d="M411 432L571.5 451L497 311Z" fill="#373839" stroke="#373839"></path><path d="M338.5 466L399 489L411 432Z" fill="#373839" stroke="#373839"></path><path d="M411 432L399 489L571.5 451Z" fill="#6e6f70" stroke="#6e6f70"></path><path d="M639 538L616.5 460L571.5 451Z" fill="#abacad" stroke="#abacad"></path><path d="M571.5 451L616.5 460L626 274Z" fill="#6e6f70" stroke="#6e6f70"></path><path d="M626 274L733.5 166L631 221Z" fill="#373839" stroke="#373839"></path><path d="M256 331L318.5 441L411 432Z" fill="#262728" stroke="#262728"></path><path d="M294.5 243L256 331L411 432Z" fill="#c0c1c2" stroke="#c0c1c2"></path><path d="M318.5 441L338.5 466L411 432Z" fill="#262728" stroke="#262728"></path><path d="M415 0L427 46L612.5 0Z" fill="#000000" stroke="#000000"></path><path d="M558.5 151L427 46L492 247Z" fill="#abacad" stroke="#abacad"></path><path d="M353.5 196L233 205L294.5 243Z" fill="#262728" stroke="#262728"></path><path d="M616.5 460L709 380L626 274Z" fill="#abacad" stroke="#abacad"></path><path d="M631 221L733.5 166L611.5 171Z" fill="#828384" stroke="#828384"></path><path d="M322.5 69L233 205L353.5 196Z" fill="#969798" stroke="#969798"></path><path d="M294.5 243L233 205L256 331Z" fill="#c0c1c2" stroke="#c0c1c2"></path><path d="M427 46L322.5 69L353.5 196Z" fill="#373839" stroke="#373839"></path><path d="M256 331L272 450L318.5 441Z" fill="#6e6f70" stroke="#6e6f70"></path><path d="M318.5 441L272 450L338.5 466Z" fill="#969798" stroke="#969798"></path><path d="M387.5 600L477 600L399 489Z" fill="#969798" stroke="#969798"></path><path d="M192 377L272 450L256 331Z" fill="#161718" stroke="#161718"></path><path d="M824.5 246L733.5 166L626 274Z" fill="#373839" stroke="#373839"></path><path d="M611.5 171L612.5 0L558.5 151Z" fill="#abacad" stroke="#abacad"></path><path d="M733.5 166L723 132L611.5 171Z" fill="#161718" stroke="#161718"></path><path d="M612.5 0L427 46L558.5 151Z" fill="#969798" stroke="#969798"></path><path d="M427 46L327.5 0L322.5 69Z" fill="#000000" stroke="#000000"></path><path d="M610.5 600L639 538L571.5 451Z" fill="#5b5c5d" stroke="#5b5c5d"></path><path d="M616.5 460L772.5 532L709 380Z" fill="#000000" stroke="#000000"></path><path d="M141.5 258L192 377L256 331Z" fill="#5b5c5d" stroke="#5b5c5d"></path><path d="M642 0L612.5 0L611.5 171Z" fill="#5b5c5d" stroke="#5b5c5d"></path><path d="M415 0L327.5 0L427 46Z" fill="#494a4b" stroke="#494a4b"></path><path d="M322.5 69L225 77L233 205Z" fill="#262728" stroke="#262728"></path><path d="M387.5 600L399 489L338.5 466Z" fill="#000000" stroke="#000000"></path><path d="M399 489L477 600L571.5 451Z" fill="#828384" stroke="#828384"></path><path d="M723 132L642 0L611.5 171Z" fill="#828384" stroke="#828384"></path><path d="M327.5 0L225 77L322.5 69Z" fill="#494a4b" stroke="#494a4b"></path><path d="M233 205L141.5 258L256 331Z" fill="#6e6f70" stroke="#6e6f70"></path><path d="M225 77L164.5 182L233 205Z" fill="#c0c1c2" stroke="#c0c1c2"></path><path d="M196 600L387.5 600L338.5 466Z" fill="#161718" stroke="#161718"></path><path d="M196 600L338.5 466L272 450Z" fill="#000000" stroke="#000000"></path><path d="M772.5 532L799.5 386L709 380Z" fill="#5b5c5d" stroke="#5b5c5d"></path><path d="M709 380L824.5 246L626 274Z" fill="#969798" stroke="#969798"></path><path d="M164.5 182L141.5 258L233 205Z" fill="#abacad" stroke="#abacad"></path><path d="M733.5 166L763.5 84L723 132Z" fill="#000000" stroke="#000000"></path><path d="M723 132L763.5 84L642 0Z" fill="#6e6f70" stroke="#6e6f70"></path><path d="M900 141L763.5 84L733.5 166Z" fill="#494a4b" stroke="#494a4b"></path><path d="M477 600L610.5 600L571.5 451Z" fill="#828384" stroke="#828384"></path><path d="M639 538L772.5 532L616.5 460Z" fill="#5b5c5d" stroke="#5b5c5d"></path><path d="M799.5 386L824.5 246L709 380Z" fill="#161718" stroke="#161718"></path><path d="M610.5 600L621 600L639 538Z" fill="#6e6f70" stroke="#6e6f70"></path><path d="M0 320L154.5 435L192 377Z" fill="#000000" stroke="#000000"></path><path d="M192 377L154.5 435L272 450Z" fill="#494a4b" stroke="#494a4b"></path><path d="M621 600L772.5 532L639 538Z" fill="#828384" stroke="#828384"></path><path d="M164.5 182L105.5 132L141.5 258Z" fill="#6e6f70" stroke="#6e6f70"></path><path d="M225 77L105.5 132L164.5 182Z" fill="#6e6f70" stroke="#6e6f70"></path><path d="M327.5 0L197 0L225 77Z" fill="#828384" stroke="#828384"></path><path d="M163.5 0L105.5 132L225 77Z" fill="#262728" stroke="#262728"></path><path d="M0 320L80.5 466L154.5 435Z" fill="#373839" stroke="#373839"></path><path d="M799.5 386L900 279L824.5 246Z" fill="#000000" stroke="#000000"></path><path d="M824.5 246L900 141L733.5 166Z" fill="#373839" stroke="#373839"></path><path d="M900 383L900 279L799.5 386Z" fill="#000000" stroke="#000000"></path><path d="M197 0L163.5 0L225 77Z" fill="#5b5c5d" stroke="#5b5c5d"></path><path d="M900 279L900 202L824.5 246Z" fill="#161718" stroke="#161718"></path><path d="M154.5 435L196 600L272 450Z" fill="#828384" stroke="#828384"></path><path d="M900 492L900 383L799.5 386Z" fill="#161718" stroke="#161718"></path><path d="M900 141L814.5 0L763.5 84Z" fill="#c0c1c2" stroke="#c0c1c2"></path><path d="M763.5 84L814.5 0L642 0Z" fill="#c0c1c2" stroke="#c0c1c2"></path><path d="M0 320L192 377L141.5 258Z" fill="#5b5c5d" stroke="#5b5c5d"></path><path d="M154.5 435L115.5 600L196 600Z" fill="#6e6f70" stroke="#6e6f70"></path><path d="M900 202L900 141L824.5 246Z" fill="#6e6f70" stroke="#6e6f70"></path><path d="M621 600L823.5 600L772.5 532Z" fill="#5b5c5d" stroke="#5b5c5d"></path><path d="M772.5 532L900 492L799.5 386Z" fill="#969798" stroke="#969798"></path><path d="M823.5 600L900 492L772.5 532Z" fill="#c0c1c2" stroke="#c0c1c2"></path><path d="M0 212L0 320L141.5 258Z" fill="#c0c1c2" stroke="#c0c1c2"></path><path d="M0 212L141.5 258L105.5 132Z" fill="#373839" stroke="#373839"></path><path d="M0 538L115.5 600L80.5 466Z" fill="#c0c1c2" stroke="#c0c1c2"></path><path d="M80.5 466L115.5 600L154.5 435Z" fill="#161718" stroke="#161718"></path><path d="M0 54L0 212L105.5 132Z" fill="#c0c1c2" stroke="#c0c1c2"></path><path d="M900 141L900 0L814.5 0Z" fill="#494a4b" stroke="#494a4b"></path><path d="M0 320L0 433L80.5 466Z" fill="#373839" stroke="#373839"></path><path d="M823.5 600L900 600L900 492Z" fill="#262728" stroke="#262728"></path><path d="M163.5 0L0 54L105.5 132Z" fill="#6e6f70" stroke="#6e6f70"></path><path d="M0 433L0 538L80.5 466Z" fill="#abacad" stroke="#abacad"></path><path d="M163.5 0L0 0L0 54Z" fill="#6e6f70" stroke="#6e6f70"></path><path d="M0 538L0 600L115.5 600Z" fill="#5b5c5d" stroke="#5b5c5d"></path></g></svg>